<mxfile host="app.diagrams.net" modified="2022-09-30T07:21:44.292Z" agent="5.0 (Windows NT 10.0; Win64; x64) AppleWebKit/537.36 (KHTML, like Gecko) Chrome/105.0.0.0 Safari/537.36" etag="M9pSEt2tQhpK-a4XiZBf" version="20.3.7" type="github">
  <diagram id="J2F4r25kzpAn02uKHhFs" name="ICT">
    <mxGraphModel dx="3528" dy="1997" grid="1" gridSize="10" guides="1" tooltips="1" connect="1" arrows="1" fold="1" page="1" pageScale="1" pageWidth="1654" pageHeight="1169" background="none" math="0" shadow="0">
      <root>
        <mxCell id="0" />
        <mxCell id="1" parent="0" />
        <mxCell id="-fwYS_BHp-xkA_xOUPBB-69" style="edgeStyle=orthogonalEdgeStyle;curved=1;rounded=0;sketch=1;hachureGap=4;orthogonalLoop=1;jettySize=auto;html=1;fontFamily=Architects Daughter;fontSource=https%3A%2F%2Ffonts.googleapis.com%2Fcss%3Ffamily%3DArchitects%2BDaughter;fontSize=16;endArrow=open;startSize=14;endSize=14;sourcePerimeterSpacing=8;targetPerimeterSpacing=8;exitX=0.489;exitY=1.071;exitDx=0;exitDy=0;exitPerimeter=0;" parent="1" source="-fwYS_BHp-xkA_xOUPBB-6" target="-fwYS_BHp-xkA_xOUPBB-68" edge="1">
          <mxGeometry relative="1" as="geometry" />
        </mxCell>
        <mxCell id="-fwYS_BHp-xkA_xOUPBB-1" value="Output" style="swimlane;fontStyle=0;childLayout=stackLayout;horizontal=1;startSize=30;horizontalStack=0;resizeParent=1;resizeParentMax=0;resizeLast=0;collapsible=1;marginBottom=0;rounded=0;sketch=1;fillColor=#008a00;fontColor=#ffffff;strokeColor=#005700;" parent="1" vertex="1">
          <mxGeometry x="279.99999999999994" y="610" width="190" height="240" as="geometry" />
        </mxCell>
        <mxCell id="-fwYS_BHp-xkA_xOUPBB-2" value="DATE" style="text;strokeColor=none;fillColor=none;align=left;verticalAlign=middle;spacingLeft=4;spacingRight=4;overflow=hidden;points=[[0,0.5],[1,0.5]];portConstraint=eastwest;rotatable=0;rounded=0;sketch=1;" parent="-fwYS_BHp-xkA_xOUPBB-1" vertex="1">
          <mxGeometry y="30" width="190" height="30" as="geometry" />
        </mxCell>
        <mxCell id="-fwYS_BHp-xkA_xOUPBB-4" value="PN" style="text;strokeColor=none;fillColor=none;align=left;verticalAlign=middle;spacingLeft=4;spacingRight=4;overflow=hidden;points=[[0,0.5],[1,0.5]];portConstraint=eastwest;rotatable=0;rounded=0;sketch=1;" parent="-fwYS_BHp-xkA_xOUPBB-1" vertex="1">
          <mxGeometry y="60" width="190" height="30" as="geometry" />
        </mxCell>
        <mxCell id="-fwYS_BHp-xkA_xOUPBB-3" value="LOCATION_ID" style="text;strokeColor=none;fillColor=none;align=left;verticalAlign=middle;spacingLeft=4;spacingRight=4;overflow=hidden;points=[[0,0.5],[1,0.5]];portConstraint=eastwest;rotatable=0;rounded=0;sketch=1;" parent="-fwYS_BHp-xkA_xOUPBB-1" vertex="1">
          <mxGeometry y="90" width="190" height="30" as="geometry" />
        </mxCell>
        <mxCell id="-fwYS_BHp-xkA_xOUPBB-15" value="MACHINE_ID" style="text;strokeColor=none;fillColor=none;align=left;verticalAlign=middle;spacingLeft=4;spacingRight=4;overflow=hidden;points=[[0,0.5],[1,0.5]];portConstraint=eastwest;rotatable=0;rounded=0;sketch=1;" parent="-fwYS_BHp-xkA_xOUPBB-1" vertex="1">
          <mxGeometry y="120" width="190" height="30" as="geometry" />
        </mxCell>
        <mxCell id="-fwYS_BHp-xkA_xOUPBB-16" value="PROCESS_NUMBER" style="text;strokeColor=none;fillColor=none;align=left;verticalAlign=middle;spacingLeft=4;spacingRight=4;overflow=hidden;points=[[0,0.5],[1,0.5]];portConstraint=eastwest;rotatable=0;rounded=0;sketch=1;" parent="-fwYS_BHp-xkA_xOUPBB-1" vertex="1">
          <mxGeometry y="150" width="190" height="30" as="geometry" />
        </mxCell>
        <mxCell id="-fwYS_BHp-xkA_xOUPBB-5" value="TOTAL" style="text;strokeColor=none;fillColor=none;align=left;verticalAlign=middle;spacingLeft=4;spacingRight=4;overflow=hidden;points=[[0,0.5],[1,0.5]];portConstraint=eastwest;rotatable=0;rounded=0;sketch=1;" parent="-fwYS_BHp-xkA_xOUPBB-1" vertex="1">
          <mxGeometry y="180" width="190" height="30" as="geometry" />
        </mxCell>
        <mxCell id="-fwYS_BHp-xkA_xOUPBB-6" value="PASSED" style="text;strokeColor=none;fillColor=none;align=left;verticalAlign=middle;spacingLeft=4;spacingRight=4;overflow=hidden;points=[[0,0.5],[1,0.5]];portConstraint=eastwest;rotatable=0;rounded=0;sketch=1;" parent="-fwYS_BHp-xkA_xOUPBB-1" vertex="1">
          <mxGeometry y="210" width="190" height="30" as="geometry" />
        </mxCell>
        <mxCell id="-fwYS_BHp-xkA_xOUPBB-21" value="Fixture_MES" style="swimlane;fontStyle=0;childLayout=stackLayout;horizontal=1;startSize=30;horizontalStack=0;resizeParent=1;resizeParentMax=0;resizeLast=0;collapsible=1;marginBottom=0;rounded=0;sketch=1;" parent="1" vertex="1">
          <mxGeometry x="-60" y="410" width="190" height="120" as="geometry" />
        </mxCell>
        <mxCell id="-fwYS_BHp-xkA_xOUPBB-23" value="PN" style="text;strokeColor=none;fillColor=none;align=left;verticalAlign=middle;spacingLeft=4;spacingRight=4;overflow=hidden;points=[[0,0.5],[1,0.5]];portConstraint=eastwest;rotatable=0;rounded=0;sketch=1;" parent="-fwYS_BHp-xkA_xOUPBB-21" vertex="1">
          <mxGeometry y="30" width="190" height="30" as="geometry" />
        </mxCell>
        <mxCell id="ZsybrVfRrKwF5AHkcDYL-2" value="Fixture_ID" style="text;strokeColor=none;fillColor=none;align=left;verticalAlign=middle;spacingLeft=4;spacingRight=4;overflow=hidden;points=[[0,0.5],[1,0.5]];portConstraint=eastwest;rotatable=0;rounded=0;sketch=1;" parent="-fwYS_BHp-xkA_xOUPBB-21" vertex="1">
          <mxGeometry y="60" width="190" height="30" as="geometry" />
        </mxCell>
        <mxCell id="-fwYS_BHp-xkA_xOUPBB-24" value="MACHINE_ID" style="text;strokeColor=none;fillColor=none;align=left;verticalAlign=middle;spacingLeft=4;spacingRight=4;overflow=hidden;points=[[0,0.5],[1,0.5]];portConstraint=eastwest;rotatable=0;rounded=0;sketch=1;" parent="-fwYS_BHp-xkA_xOUPBB-21" vertex="1">
          <mxGeometry y="90" width="190" height="30" as="geometry" />
        </mxCell>
        <mxCell id="-fwYS_BHp-xkA_xOUPBB-36" value="" style="group;rounded=0;sketch=1;" parent="1" vertex="1" connectable="0">
          <mxGeometry x="860" y="-340" width="770" height="780" as="geometry" />
        </mxCell>
        <mxCell id="-fwYS_BHp-xkA_xOUPBB-110" value="" style="group;sketch=1;" parent="-fwYS_BHp-xkA_xOUPBB-36" vertex="1" connectable="0">
          <mxGeometry width="770" height="780" as="geometry" />
        </mxCell>
        <mxCell id="-fwYS_BHp-xkA_xOUPBB-35" value="" style="rounded=0;whiteSpace=wrap;html=1;fillColor=#dae8fc;strokeColor=#6c8ebf;sketch=1;" parent="-fwYS_BHp-xkA_xOUPBB-110" vertex="1">
          <mxGeometry width="770" height="780" as="geometry" />
        </mxCell>
        <mxCell id="-fwYS_BHp-xkA_xOUPBB-108" value="MWS" style="text;html=1;strokeColor=none;fillColor=none;align=center;verticalAlign=middle;whiteSpace=wrap;rounded=0;sketch=1;hachureGap=4;fontFamily=Architects Daughter;fontSource=https%3A%2F%2Ffonts.googleapis.com%2Fcss%3Ffamily%3DArchitects%2BDaughter;fontSize=30;" parent="-fwYS_BHp-xkA_xOUPBB-110" vertex="1">
          <mxGeometry x="370" y="10" width="80" height="40" as="geometry" />
        </mxCell>
        <mxCell id="GR_5a6v5A3B-gCJngwsE-9" value="SD" style="swimlane;fontStyle=0;childLayout=stackLayout;horizontal=1;startSize=30;horizontalStack=0;resizeParent=1;resizeParentMax=0;resizeLast=0;collapsible=1;marginBottom=0;fillColor=#dae8fc;strokeColor=#6c8ebf;rounded=0;sketch=1;" parent="-fwYS_BHp-xkA_xOUPBB-36" vertex="1">
          <mxGeometry x="50" y="40" width="140" height="240" as="geometry">
            <mxRectangle x="340" y="120" width="100" height="30" as="alternateBounds" />
          </mxGeometry>
        </mxCell>
        <mxCell id="GR_5a6v5A3B-gCJngwsE-10" value="SD_PK" style="text;strokeColor=none;fillColor=none;align=left;verticalAlign=middle;spacingLeft=4;spacingRight=4;overflow=hidden;points=[[0,0.5],[1,0.5]];portConstraint=eastwest;rotatable=0;rounded=0;sketch=1;" parent="GR_5a6v5A3B-gCJngwsE-9" vertex="1">
          <mxGeometry y="30" width="140" height="30" as="geometry" />
        </mxCell>
        <mxCell id="GR_5a6v5A3B-gCJngwsE-11" value="SD_PK2" style="text;strokeColor=none;fillColor=none;align=left;verticalAlign=middle;spacingLeft=4;spacingRight=4;overflow=hidden;points=[[0,0.5],[1,0.5]];portConstraint=eastwest;rotatable=0;rounded=0;sketch=1;" parent="GR_5a6v5A3B-gCJngwsE-9" vertex="1">
          <mxGeometry y="60" width="140" height="30" as="geometry" />
        </mxCell>
        <mxCell id="GR_5a6v5A3B-gCJngwsE-12" value="POSNR" style="text;strokeColor=none;fillColor=none;align=left;verticalAlign=middle;spacingLeft=4;spacingRight=4;overflow=hidden;points=[[0,0.5],[1,0.5]];portConstraint=eastwest;rotatable=0;rounded=0;sketch=1;" parent="GR_5a6v5A3B-gCJngwsE-9" vertex="1">
          <mxGeometry y="90" width="140" height="30" as="geometry" />
        </mxCell>
        <mxCell id="GR_5a6v5A3B-gCJngwsE-13" value="MODNAME" style="text;strokeColor=none;fillColor=none;align=left;verticalAlign=middle;spacingLeft=4;spacingRight=4;overflow=hidden;points=[[0,0.5],[1,0.5]];portConstraint=eastwest;rotatable=0;rounded=0;sketch=1;" parent="GR_5a6v5A3B-gCJngwsE-9" vertex="1">
          <mxGeometry y="120" width="140" height="30" as="geometry" />
        </mxCell>
        <mxCell id="GR_5a6v5A3B-gCJngwsE-54" value="DIM" style="text;strokeColor=none;fillColor=none;align=left;verticalAlign=middle;spacingLeft=4;spacingRight=4;overflow=hidden;points=[[0,0.5],[1,0.5]];portConstraint=eastwest;rotatable=0;rounded=0;sketch=1;" parent="GR_5a6v5A3B-gCJngwsE-9" vertex="1">
          <mxGeometry y="150" width="140" height="30" as="geometry" />
        </mxCell>
        <mxCell id="GR_5a6v5A3B-gCJngwsE-57" value="TUG" style="text;strokeColor=none;fillColor=none;align=left;verticalAlign=middle;spacingLeft=4;spacingRight=4;overflow=hidden;points=[[0,0.5],[1,0.5]];portConstraint=eastwest;rotatable=0;rounded=0;sketch=1;" parent="GR_5a6v5A3B-gCJngwsE-9" vertex="1">
          <mxGeometry y="180" width="140" height="30" as="geometry" />
        </mxCell>
        <mxCell id="GR_5a6v5A3B-gCJngwsE-55" value="TOG" style="text;strokeColor=none;fillColor=none;align=left;verticalAlign=middle;spacingLeft=4;spacingRight=4;overflow=hidden;points=[[0,0.5],[1,0.5]];portConstraint=eastwest;rotatable=0;rounded=0;sketch=1;" parent="GR_5a6v5A3B-gCJngwsE-9" vertex="1">
          <mxGeometry y="210" width="140" height="30" as="geometry" />
        </mxCell>
        <mxCell id="GR_5a6v5A3B-gCJngwsE-29" value="TMKOPF" style="swimlane;fontStyle=0;childLayout=stackLayout;horizontal=1;startSize=30;horizontalStack=0;resizeParent=1;resizeParentMax=0;resizeLast=0;collapsible=1;marginBottom=0;fillColor=#dae8fc;strokeColor=#6c8ebf;rounded=0;sketch=1;" parent="-fwYS_BHp-xkA_xOUPBB-36" vertex="1">
          <mxGeometry x="590" y="390" width="140" height="330" as="geometry">
            <mxRectangle x="340" y="120" width="100" height="30" as="alternateBounds" />
          </mxGeometry>
        </mxCell>
        <mxCell id="GR_5a6v5A3B-gCJngwsE-30" value="MDKOPF_PK" style="text;strokeColor=none;fillColor=none;align=left;verticalAlign=middle;spacingLeft=4;spacingRight=4;overflow=hidden;points=[[0,0.5],[1,0.5]];portConstraint=eastwest;rotatable=0;rounded=0;sketch=1;" parent="GR_5a6v5A3B-gCJngwsE-29" vertex="1">
          <mxGeometry y="30" width="140" height="30" as="geometry" />
        </mxCell>
        <mxCell id="GR_5a6v5A3B-gCJngwsE-31" value="SDKOPF_PK" style="text;strokeColor=none;fillColor=none;align=left;verticalAlign=middle;spacingLeft=4;spacingRight=4;overflow=hidden;points=[[0,0.5],[1,0.5]];portConstraint=eastwest;rotatable=0;rounded=0;sketch=1;" parent="GR_5a6v5A3B-gCJngwsE-29" vertex="1">
          <mxGeometry y="60" width="140" height="30" as="geometry" />
        </mxCell>
        <mxCell id="GR_5a6v5A3B-gCJngwsE-74" value="KNOTEN" style="text;strokeColor=none;fillColor=none;align=left;verticalAlign=middle;spacingLeft=4;spacingRight=4;overflow=hidden;points=[[0,0.5],[1,0.5]];portConstraint=eastwest;rotatable=0;rounded=0;sketch=1;" parent="GR_5a6v5A3B-gCJngwsE-29" vertex="1">
          <mxGeometry y="90" width="140" height="30" as="geometry" />
        </mxCell>
        <mxCell id="GR_5a6v5A3B-gCJngwsE-32" value="STYP=IC" style="text;strokeColor=none;fillColor=none;align=left;verticalAlign=middle;spacingLeft=4;spacingRight=4;overflow=hidden;points=[[0,0.5],[1,0.5]];portConstraint=eastwest;rotatable=0;rounded=0;sketch=1;" parent="GR_5a6v5A3B-gCJngwsE-29" vertex="1">
          <mxGeometry y="120" width="140" height="30" as="geometry" />
        </mxCell>
        <mxCell id="GR_5a6v5A3B-gCJngwsE-33" value="ZEITS" style="text;strokeColor=none;fillColor=none;align=left;verticalAlign=middle;spacingLeft=4;spacingRight=4;overflow=hidden;points=[[0,0.5],[1,0.5]];portConstraint=eastwest;rotatable=0;rounded=0;sketch=1;" parent="GR_5a6v5A3B-gCJngwsE-29" vertex="1">
          <mxGeometry y="150" width="140" height="30" as="geometry" />
        </mxCell>
        <mxCell id="GR_5a6v5A3B-gCJngwsE-51" value="BARCONR" style="text;strokeColor=none;fillColor=none;align=left;verticalAlign=middle;spacingLeft=4;spacingRight=4;overflow=hidden;points=[[0,0.5],[1,0.5]];portConstraint=eastwest;rotatable=0;rounded=0;sketch=1;" parent="GR_5a6v5A3B-gCJngwsE-29" vertex="1">
          <mxGeometry y="180" width="140" height="30" as="geometry" />
        </mxCell>
        <mxCell id="GR_5a6v5A3B-gCJngwsE-71" value="SGID" style="text;strokeColor=none;fillColor=none;align=left;verticalAlign=middle;spacingLeft=4;spacingRight=4;overflow=hidden;points=[[0,0.5],[1,0.5]];portConstraint=eastwest;rotatable=0;rounded=0;sketch=1;" parent="GR_5a6v5A3B-gCJngwsE-29" vertex="1">
          <mxGeometry y="210" width="140" height="30" as="geometry" />
        </mxCell>
        <mxCell id="GR_5a6v5A3B-gCJngwsE-72" value="PZEIT" style="text;strokeColor=none;fillColor=none;align=left;verticalAlign=middle;spacingLeft=4;spacingRight=4;overflow=hidden;points=[[0,0.5],[1,0.5]];portConstraint=eastwest;rotatable=0;rounded=0;sketch=1;" parent="GR_5a6v5A3B-gCJngwsE-29" vertex="1">
          <mxGeometry y="240" width="140" height="30" as="geometry" />
        </mxCell>
        <mxCell id="GR_5a6v5A3B-gCJngwsE-75" value="EZEIT" style="text;strokeColor=none;fillColor=none;align=left;verticalAlign=middle;spacingLeft=4;spacingRight=4;overflow=hidden;points=[[0,0.5],[1,0.5]];portConstraint=eastwest;rotatable=0;rounded=0;sketch=1;" parent="GR_5a6v5A3B-gCJngwsE-29" vertex="1">
          <mxGeometry y="270" width="140" height="30" as="geometry" />
        </mxCell>
        <mxCell id="GR_5a6v5A3B-gCJngwsE-52" value="KTNAME" style="text;strokeColor=none;fillColor=none;align=left;verticalAlign=middle;spacingLeft=4;spacingRight=4;overflow=hidden;points=[[0,0.5],[1,0.5]];portConstraint=eastwest;rotatable=0;rounded=0;sketch=1;" parent="GR_5a6v5A3B-gCJngwsE-29" vertex="1">
          <mxGeometry y="300" width="140" height="30" as="geometry" />
        </mxCell>
        <mxCell id="GR_5a6v5A3B-gCJngwsE-39" value="MVKOPF" style="swimlane;fontStyle=0;childLayout=stackLayout;horizontal=1;startSize=30;horizontalStack=0;resizeParent=1;resizeParentMax=0;resizeLast=0;collapsible=1;marginBottom=0;fillColor=#dae8fc;strokeColor=#6c8ebf;rounded=0;sketch=1;" parent="-fwYS_BHp-xkA_xOUPBB-36" vertex="1">
          <mxGeometry x="340" y="470" width="140" height="210" as="geometry">
            <mxRectangle x="340" y="120" width="100" height="30" as="alternateBounds" />
          </mxGeometry>
        </mxCell>
        <mxCell id="GR_5a6v5A3B-gCJngwsE-40" value="MVKOPF_PK" style="text;strokeColor=none;fillColor=none;align=left;verticalAlign=middle;spacingLeft=4;spacingRight=4;overflow=hidden;points=[[0,0.5],[1,0.5]];portConstraint=eastwest;rotatable=0;rounded=0;sketch=1;" parent="GR_5a6v5A3B-gCJngwsE-39" vertex="1">
          <mxGeometry y="30" width="140" height="30" as="geometry" />
        </mxCell>
        <mxCell id="GR_5a6v5A3B-gCJngwsE-41" value="SDKOPF_PK" style="text;strokeColor=none;fillColor=none;align=left;verticalAlign=middle;spacingLeft=4;spacingRight=4;overflow=hidden;points=[[0,0.5],[1,0.5]];portConstraint=eastwest;rotatable=0;rounded=0;sketch=1;" parent="GR_5a6v5A3B-gCJngwsE-39" vertex="1">
          <mxGeometry y="60" width="140" height="30" as="geometry" />
        </mxCell>
        <mxCell id="GR_5a6v5A3B-gCJngwsE-42" value="KNOTE" style="text;strokeColor=none;fillColor=none;align=left;verticalAlign=middle;spacingLeft=4;spacingRight=4;overflow=hidden;points=[[0,0.5],[1,0.5]];portConstraint=eastwest;rotatable=0;rounded=0;sketch=1;" parent="GR_5a6v5A3B-gCJngwsE-39" vertex="1">
          <mxGeometry y="90" width="140" height="30" as="geometry" />
        </mxCell>
        <mxCell id="GR_5a6v5A3B-gCJngwsE-60" value="GSSG" style="text;strokeColor=none;fillColor=none;align=left;verticalAlign=middle;spacingLeft=4;spacingRight=4;overflow=hidden;points=[[0,0.5],[1,0.5]];portConstraint=eastwest;rotatable=0;rounded=0;sketch=1;" parent="GR_5a6v5A3B-gCJngwsE-39" vertex="1">
          <mxGeometry y="120" width="140" height="30" as="geometry" />
        </mxCell>
        <mxCell id="GR_5a6v5A3B-gCJngwsE-61" value="GSGUT" style="text;strokeColor=none;fillColor=none;align=left;verticalAlign=middle;spacingLeft=4;spacingRight=4;overflow=hidden;points=[[0,0.5],[1,0.5]];portConstraint=eastwest;rotatable=0;rounded=0;sketch=1;" parent="GR_5a6v5A3B-gCJngwsE-39" vertex="1">
          <mxGeometry y="150" width="140" height="30" as="geometry" />
        </mxCell>
        <mxCell id="GR_5a6v5A3B-gCJngwsE-62" value="GSSEK" style="text;strokeColor=none;fillColor=none;align=left;verticalAlign=middle;spacingLeft=4;spacingRight=4;overflow=hidden;points=[[0,0.5],[1,0.5]];portConstraint=eastwest;rotatable=0;rounded=0;sketch=1;" parent="GR_5a6v5A3B-gCJngwsE-39" vertex="1">
          <mxGeometry y="180" width="140" height="30" as="geometry" />
        </mxCell>
        <mxCell id="GR_5a6v5A3B-gCJngwsE-44" value="SDKOPF" style="swimlane;fontStyle=0;childLayout=stackLayout;horizontal=1;startSize=30;horizontalStack=0;resizeParent=1;resizeParentMax=0;resizeLast=0;collapsible=1;marginBottom=0;fillColor=#dae8fc;strokeColor=#6c8ebf;rounded=0;sketch=1;" parent="-fwYS_BHp-xkA_xOUPBB-36" vertex="1">
          <mxGeometry x="330" y="110" width="140" height="210" as="geometry">
            <mxRectangle x="340" y="120" width="100" height="30" as="alternateBounds" />
          </mxGeometry>
        </mxCell>
        <mxCell id="GR_5a6v5A3B-gCJngwsE-45" value="SDKOPF_PK" style="text;strokeColor=none;fillColor=none;align=left;verticalAlign=middle;spacingLeft=4;spacingRight=4;overflow=hidden;points=[[0,0.5],[1,0.5]];portConstraint=eastwest;rotatable=0;rounded=0;sketch=1;" parent="GR_5a6v5A3B-gCJngwsE-44" vertex="1">
          <mxGeometry y="30" width="140" height="30" as="geometry" />
        </mxCell>
        <mxCell id="GR_5a6v5A3B-gCJngwsE-46" value="SDKOPF_PK2" style="text;strokeColor=none;fillColor=none;align=left;verticalAlign=middle;spacingLeft=4;spacingRight=4;overflow=hidden;points=[[0,0.5],[1,0.5]];portConstraint=eastwest;rotatable=0;rounded=0;sketch=1;" parent="GR_5a6v5A3B-gCJngwsE-44" vertex="1">
          <mxGeometry y="60" width="140" height="30" as="geometry" />
        </mxCell>
        <mxCell id="GR_5a6v5A3B-gCJngwsE-47" value="TTNR" style="text;strokeColor=none;fillColor=none;align=left;verticalAlign=middle;spacingLeft=4;spacingRight=4;overflow=hidden;points=[[0,0.5],[1,0.5]];portConstraint=eastwest;rotatable=0;rounded=0;sketch=1;" parent="GR_5a6v5A3B-gCJngwsE-44" vertex="1">
          <mxGeometry y="90" width="140" height="30" as="geometry" />
        </mxCell>
        <mxCell id="GR_5a6v5A3B-gCJngwsE-48" value="PTPROD" style="text;strokeColor=none;fillColor=none;align=left;verticalAlign=middle;spacingLeft=4;spacingRight=4;overflow=hidden;points=[[0,0.5],[1,0.5]];portConstraint=eastwest;rotatable=0;rounded=0;sketch=1;" parent="GR_5a6v5A3B-gCJngwsE-44" vertex="1">
          <mxGeometry y="120" width="140" height="30" as="geometry" />
        </mxCell>
        <mxCell id="GR_5a6v5A3B-gCJngwsE-49" value="PTTYP" style="text;strokeColor=none;fillColor=none;align=left;verticalAlign=middle;spacingLeft=4;spacingRight=4;overflow=hidden;points=[[0,0.5],[1,0.5]];portConstraint=eastwest;rotatable=0;rounded=0;sketch=1;" parent="GR_5a6v5A3B-gCJngwsE-44" vertex="1">
          <mxGeometry y="150" width="140" height="30" as="geometry" />
        </mxCell>
        <mxCell id="GR_5a6v5A3B-gCJngwsE-50" value="VAR" style="text;strokeColor=none;fillColor=none;align=left;verticalAlign=middle;spacingLeft=4;spacingRight=4;overflow=hidden;points=[[0,0.5],[1,0.5]];portConstraint=eastwest;rotatable=0;rounded=0;sketch=1;" parent="GR_5a6v5A3B-gCJngwsE-44" vertex="1">
          <mxGeometry y="180" width="140" height="30" as="geometry" />
        </mxCell>
        <mxCell id="GR_5a6v5A3B-gCJngwsE-63" value="TMD" style="swimlane;fontStyle=0;childLayout=stackLayout;horizontal=1;startSize=30;horizontalStack=0;resizeParent=1;resizeParentMax=0;resizeLast=0;collapsible=1;marginBottom=0;fillColor=#dae8fc;strokeColor=#6c8ebf;rounded=0;sketch=1;" parent="-fwYS_BHp-xkA_xOUPBB-36" vertex="1">
          <mxGeometry x="590" y="40" width="140" height="180" as="geometry">
            <mxRectangle x="340" y="120" width="100" height="30" as="alternateBounds" />
          </mxGeometry>
        </mxCell>
        <mxCell id="GR_5a6v5A3B-gCJngwsE-65" value="SD_FK" style="text;strokeColor=none;fillColor=none;align=left;verticalAlign=middle;spacingLeft=4;spacingRight=4;overflow=hidden;points=[[0,0.5],[1,0.5]];portConstraint=eastwest;rotatable=0;rounded=0;sketch=1;" parent="GR_5a6v5A3B-gCJngwsE-63" vertex="1">
          <mxGeometry y="30" width="140" height="30" as="geometry" />
        </mxCell>
        <mxCell id="GR_5a6v5A3B-gCJngwsE-66" value="MDKOPF_FK" style="text;strokeColor=none;fillColor=none;align=left;verticalAlign=middle;spacingLeft=4;spacingRight=4;overflow=hidden;points=[[0,0.5],[1,0.5]];portConstraint=eastwest;rotatable=0;rounded=0;sketch=1;" parent="GR_5a6v5A3B-gCJngwsE-63" vertex="1">
          <mxGeometry y="60" width="140" height="30" as="geometry" />
        </mxCell>
        <mxCell id="GR_5a6v5A3B-gCJngwsE-67" value="VCHAR" style="text;strokeColor=none;fillColor=none;align=left;verticalAlign=middle;spacingLeft=4;spacingRight=4;overflow=hidden;points=[[0,0.5],[1,0.5]];portConstraint=eastwest;rotatable=0;rounded=0;sketch=1;" parent="GR_5a6v5A3B-gCJngwsE-63" vertex="1">
          <mxGeometry y="90" width="140" height="30" as="geometry" />
        </mxCell>
        <mxCell id="GR_5a6v5A3B-gCJngwsE-68" value="VNUM" style="text;strokeColor=none;fillColor=none;align=left;verticalAlign=middle;spacingLeft=4;spacingRight=4;overflow=hidden;points=[[0,0.5],[1,0.5]];portConstraint=eastwest;rotatable=0;rounded=0;sketch=1;" parent="GR_5a6v5A3B-gCJngwsE-63" vertex="1">
          <mxGeometry y="120" width="140" height="30" as="geometry" />
        </mxCell>
        <mxCell id="GR_5a6v5A3B-gCJngwsE-69" value="ZEITS" style="text;strokeColor=none;fillColor=none;align=left;verticalAlign=middle;spacingLeft=4;spacingRight=4;overflow=hidden;points=[[0,0.5],[1,0.5]];portConstraint=eastwest;rotatable=0;rounded=0;sketch=1;" parent="GR_5a6v5A3B-gCJngwsE-63" vertex="1">
          <mxGeometry y="150" width="140" height="30" as="geometry" />
        </mxCell>
        <mxCell id="GR_5a6v5A3B-gCJngwsE-76" value="SUPHIST" style="swimlane;fontStyle=0;childLayout=stackLayout;horizontal=1;startSize=30;horizontalStack=0;resizeParent=1;resizeParentMax=0;resizeLast=0;collapsible=1;marginBottom=0;fillColor=#dae8fc;strokeColor=#6c8ebf;rounded=0;sketch=1;" parent="-fwYS_BHp-xkA_xOUPBB-36" vertex="1">
          <mxGeometry x="80" y="360" width="140" height="360" as="geometry">
            <mxRectangle x="340" y="120" width="100" height="30" as="alternateBounds" />
          </mxGeometry>
        </mxCell>
        <mxCell id="GR_5a6v5A3B-gCJngwsE-77" value="SDKOPF_FK" style="text;strokeColor=none;fillColor=none;align=left;verticalAlign=middle;spacingLeft=4;spacingRight=4;overflow=hidden;points=[[0,0.5],[1,0.5]];portConstraint=eastwest;rotatable=0;rounded=0;sketch=1;" parent="GR_5a6v5A3B-gCJngwsE-76" vertex="1">
          <mxGeometry y="30" width="140" height="30" as="geometry" />
        </mxCell>
        <mxCell id="GR_5a6v5A3B-gCJngwsE-78" value="KNOTEN" style="text;strokeColor=none;fillColor=none;align=left;verticalAlign=middle;spacingLeft=4;spacingRight=4;overflow=hidden;points=[[0,0.5],[1,0.5]];portConstraint=eastwest;rotatable=0;rounded=0;sketch=1;" parent="GR_5a6v5A3B-gCJngwsE-76" vertex="1">
          <mxGeometry y="60" width="140" height="30" as="geometry" />
        </mxCell>
        <mxCell id="GR_5a6v5A3B-gCJngwsE-79" value="DATUM" style="text;strokeColor=none;fillColor=none;align=left;verticalAlign=middle;spacingLeft=4;spacingRight=4;overflow=hidden;points=[[0,0.5],[1,0.5]];portConstraint=eastwest;rotatable=0;rounded=0;sketch=1;" parent="GR_5a6v5A3B-gCJngwsE-76" vertex="1">
          <mxGeometry y="90" width="140" height="30" as="geometry" />
        </mxCell>
        <mxCell id="GR_5a6v5A3B-gCJngwsE-80" value="TPV" style="text;strokeColor=none;fillColor=none;align=left;verticalAlign=middle;spacingLeft=4;spacingRight=4;overflow=hidden;points=[[0,0.5],[1,0.5]];portConstraint=eastwest;rotatable=0;rounded=0;sketch=1;" parent="GR_5a6v5A3B-gCJngwsE-76" vertex="1">
          <mxGeometry y="120" width="140" height="30" as="geometry" />
        </mxCell>
        <mxCell id="GR_5a6v5A3B-gCJngwsE-82" value="GESAMT(TOTAL)" style="text;strokeColor=none;fillColor=none;align=left;verticalAlign=middle;spacingLeft=4;spacingRight=4;overflow=hidden;points=[[0,0.5],[1,0.5]];portConstraint=eastwest;rotatable=0;rounded=0;sketch=1;" parent="GR_5a6v5A3B-gCJngwsE-76" vertex="1">
          <mxGeometry y="150" width="140" height="30" as="geometry" />
        </mxCell>
        <mxCell id="GR_5a6v5A3B-gCJngwsE-83" value="GUT" style="text;strokeColor=none;fillColor=none;align=left;verticalAlign=middle;spacingLeft=4;spacingRight=4;overflow=hidden;points=[[0,0.5],[1,0.5]];portConstraint=eastwest;rotatable=0;rounded=0;sketch=1;" parent="GR_5a6v5A3B-gCJngwsE-76" vertex="1">
          <mxGeometry y="180" width="140" height="30" as="geometry" />
        </mxCell>
        <mxCell id="GR_5a6v5A3B-gCJngwsE-84" value="NIO" style="text;strokeColor=none;fillColor=none;align=left;verticalAlign=middle;spacingLeft=4;spacingRight=4;overflow=hidden;points=[[0,0.5],[1,0.5]];portConstraint=eastwest;rotatable=0;rounded=0;sketch=1;" parent="GR_5a6v5A3B-gCJngwsE-76" vertex="1">
          <mxGeometry y="210" width="140" height="30" as="geometry" />
        </mxCell>
        <mxCell id="GR_5a6v5A3B-gCJngwsE-85" value="PCTGUT" style="text;strokeColor=none;fillColor=none;align=left;verticalAlign=middle;spacingLeft=4;spacingRight=4;overflow=hidden;points=[[0,0.5],[1,0.5]];portConstraint=eastwest;rotatable=0;rounded=0;sketch=1;" parent="GR_5a6v5A3B-gCJngwsE-76" vertex="1">
          <mxGeometry y="240" width="140" height="30" as="geometry" />
        </mxCell>
        <mxCell id="GR_5a6v5A3B-gCJngwsE-86" value="PDAUER(DURATION)" style="text;strokeColor=none;fillColor=none;align=left;verticalAlign=middle;spacingLeft=4;spacingRight=4;overflow=hidden;points=[[0,0.5],[1,0.5]];portConstraint=eastwest;rotatable=0;rounded=0;sketch=1;" parent="GR_5a6v5A3B-gCJngwsE-76" vertex="1">
          <mxGeometry y="270" width="140" height="30" as="geometry" />
        </mxCell>
        <mxCell id="GR_5a6v5A3B-gCJngwsE-87" value="ZEITS" style="text;strokeColor=none;fillColor=none;align=left;verticalAlign=middle;spacingLeft=4;spacingRight=4;overflow=hidden;points=[[0,0.5],[1,0.5]];portConstraint=eastwest;rotatable=0;rounded=0;sketch=1;" parent="GR_5a6v5A3B-gCJngwsE-76" vertex="1">
          <mxGeometry y="300" width="140" height="30" as="geometry" />
        </mxCell>
        <mxCell id="GR_5a6v5A3B-gCJngwsE-81" value="ZEITE" style="text;strokeColor=none;fillColor=none;align=left;verticalAlign=middle;spacingLeft=4;spacingRight=4;overflow=hidden;points=[[0,0.5],[1,0.5]];portConstraint=eastwest;rotatable=0;rounded=0;sketch=1;" parent="GR_5a6v5A3B-gCJngwsE-76" vertex="1">
          <mxGeometry y="330" width="140" height="30" as="geometry" />
        </mxCell>
        <mxCell id="GR_5a6v5A3B-gCJngwsE-92" style="edgeStyle=orthogonalEdgeStyle;rounded=0;orthogonalLoop=1;jettySize=auto;html=1;entryX=0;entryY=0.5;entryDx=0;entryDy=0;curved=1;sketch=1;" parent="-fwYS_BHp-xkA_xOUPBB-36" source="GR_5a6v5A3B-gCJngwsE-45" target="GR_5a6v5A3B-gCJngwsE-77" edge="1">
          <mxGeometry relative="1" as="geometry">
            <Array as="points">
              <mxPoint x="260" y="155" />
              <mxPoint x="260" y="330" />
              <mxPoint x="40" y="330" />
              <mxPoint x="40" y="405" />
            </Array>
          </mxGeometry>
        </mxCell>
        <mxCell id="-fwYS_BHp-xkA_xOUPBB-70" style="edgeStyle=orthogonalEdgeStyle;curved=1;rounded=0;sketch=1;hachureGap=4;orthogonalLoop=1;jettySize=auto;html=1;exitX=0;exitY=0.5;exitDx=0;exitDy=0;entryX=0;entryY=0.5;entryDx=0;entryDy=0;fontFamily=Architects Daughter;fontSource=https%3A%2F%2Ffonts.googleapis.com%2Fcss%3Ffamily%3DArchitects%2BDaughter;fontSize=16;endArrow=open;startSize=14;endSize=14;sourcePerimeterSpacing=8;targetPerimeterSpacing=8;" parent="-fwYS_BHp-xkA_xOUPBB-36" source="GR_5a6v5A3B-gCJngwsE-30" target="GR_5a6v5A3B-gCJngwsE-66" edge="1">
          <mxGeometry relative="1" as="geometry" />
        </mxCell>
        <mxCell id="-fwYS_BHp-xkA_xOUPBB-71" style="edgeStyle=orthogonalEdgeStyle;curved=1;rounded=0;sketch=1;hachureGap=4;orthogonalLoop=1;jettySize=auto;html=1;exitX=1;exitY=0.5;exitDx=0;exitDy=0;entryX=0;entryY=0.5;entryDx=0;entryDy=0;fontFamily=Architects Daughter;fontSource=https%3A%2F%2Ffonts.googleapis.com%2Fcss%3Ffamily%3DArchitects%2BDaughter;fontSize=16;endArrow=open;startSize=14;endSize=14;sourcePerimeterSpacing=8;targetPerimeterSpacing=8;" parent="-fwYS_BHp-xkA_xOUPBB-36" source="GR_5a6v5A3B-gCJngwsE-10" target="GR_5a6v5A3B-gCJngwsE-65" edge="1">
          <mxGeometry relative="1" as="geometry" />
        </mxCell>
        <mxCell id="-fwYS_BHp-xkA_xOUPBB-72" style="edgeStyle=orthogonalEdgeStyle;curved=1;rounded=0;sketch=1;hachureGap=4;orthogonalLoop=1;jettySize=auto;html=1;exitX=0;exitY=0.5;exitDx=0;exitDy=0;entryX=0;entryY=0.5;entryDx=0;entryDy=0;fontFamily=Architects Daughter;fontSource=https%3A%2F%2Ffonts.googleapis.com%2Fcss%3Ffamily%3DArchitects%2BDaughter;fontSize=16;endArrow=open;startSize=14;endSize=14;sourcePerimeterSpacing=8;targetPerimeterSpacing=8;" parent="-fwYS_BHp-xkA_xOUPBB-36" source="GR_5a6v5A3B-gCJngwsE-45" target="GR_5a6v5A3B-gCJngwsE-31" edge="1">
          <mxGeometry relative="1" as="geometry" />
        </mxCell>
        <mxCell id="-fwYS_BHp-xkA_xOUPBB-73" style="edgeStyle=orthogonalEdgeStyle;curved=1;rounded=0;sketch=1;hachureGap=4;orthogonalLoop=1;jettySize=auto;html=1;exitX=0;exitY=0.5;exitDx=0;exitDy=0;entryX=1;entryY=0.5;entryDx=0;entryDy=0;fontFamily=Architects Daughter;fontSource=https%3A%2F%2Ffonts.googleapis.com%2Fcss%3Ffamily%3DArchitects%2BDaughter;fontSize=16;endArrow=open;startSize=14;endSize=14;sourcePerimeterSpacing=8;targetPerimeterSpacing=8;" parent="-fwYS_BHp-xkA_xOUPBB-36" source="GR_5a6v5A3B-gCJngwsE-41" target="GR_5a6v5A3B-gCJngwsE-77" edge="1">
          <mxGeometry relative="1" as="geometry" />
        </mxCell>
        <mxCell id="-fwYS_BHp-xkA_xOUPBB-74" style="edgeStyle=orthogonalEdgeStyle;curved=1;rounded=0;sketch=1;hachureGap=4;orthogonalLoop=1;jettySize=auto;html=1;exitX=0;exitY=0.5;exitDx=0;exitDy=0;fontFamily=Architects Daughter;fontSource=https%3A%2F%2Ffonts.googleapis.com%2Fcss%3Ffamily%3DArchitects%2BDaughter;fontSize=16;endArrow=open;startSize=14;endSize=14;sourcePerimeterSpacing=8;targetPerimeterSpacing=8;entryX=0;entryY=0.5;entryDx=0;entryDy=0;" parent="-fwYS_BHp-xkA_xOUPBB-36" source="GR_5a6v5A3B-gCJngwsE-45" target="GR_5a6v5A3B-gCJngwsE-41" edge="1">
          <mxGeometry relative="1" as="geometry">
            <mxPoint x="320" y="550" as="targetPoint" />
          </mxGeometry>
        </mxCell>
        <mxCell id="-fwYS_BHp-xkA_xOUPBB-37" value="" style="group;rounded=0;sketch=1;strokeColor=none;" parent="1" vertex="1" connectable="0">
          <mxGeometry x="90" y="-220" width="570" height="360" as="geometry" />
        </mxCell>
        <mxCell id="GR_5a6v5A3B-gCJngwsE-1" value="MES_LOCATION_RESULTS" style="swimlane;fontStyle=0;childLayout=stackLayout;horizontal=1;startSize=30;horizontalStack=0;resizeParent=1;resizeParentMax=0;resizeLast=0;collapsible=1;marginBottom=0;fillColor=#d5e8d4;strokeColor=#82b366;rounded=0;sketch=1;" parent="-fwYS_BHp-xkA_xOUPBB-37" vertex="1">
          <mxGeometry x="30" y="30" width="190" height="300" as="geometry">
            <mxRectangle x="340" y="120" width="100" height="30" as="alternateBounds" />
          </mxGeometry>
        </mxCell>
        <mxCell id="GR_5a6v5A3B-gCJngwsE-2" value="LOCATION_RESULT_UID" style="text;strokeColor=none;fillColor=none;align=left;verticalAlign=middle;spacingLeft=4;spacingRight=4;overflow=hidden;points=[[0,0.5],[1,0.5]];portConstraint=eastwest;rotatable=0;rounded=0;sketch=1;" parent="GR_5a6v5A3B-gCJngwsE-1" vertex="1">
          <mxGeometry y="30" width="190" height="30" as="geometry" />
        </mxCell>
        <mxCell id="GR_5a6v5A3B-gCJngwsE-3" value="UNIQUEPART_ID" style="text;strokeColor=none;fillColor=none;align=left;verticalAlign=middle;spacingLeft=4;spacingRight=4;overflow=hidden;points=[[0,0.5],[1,0.5]];portConstraint=eastwest;rotatable=0;rounded=0;sketch=1;" parent="GR_5a6v5A3B-gCJngwsE-1" vertex="1">
          <mxGeometry y="60" width="190" height="30" as="geometry" />
        </mxCell>
        <mxCell id="GR_5a6v5A3B-gCJngwsE-7" value="LOCATION_ID" style="text;strokeColor=none;fillColor=none;align=left;verticalAlign=middle;spacingLeft=4;spacingRight=4;overflow=hidden;points=[[0,0.5],[1,0.5]];portConstraint=eastwest;rotatable=0;rounded=0;sketch=1;" parent="GR_5a6v5A3B-gCJngwsE-1" vertex="1">
          <mxGeometry y="90" width="190" height="30" as="geometry" />
        </mxCell>
        <mxCell id="GR_5a6v5A3B-gCJngwsE-8" value="RESULT_DATE" style="text;strokeColor=none;fillColor=none;align=left;verticalAlign=middle;spacingLeft=4;spacingRight=4;overflow=hidden;points=[[0,0.5],[1,0.5]];portConstraint=eastwest;rotatable=0;rounded=0;sketch=1;" parent="GR_5a6v5A3B-gCJngwsE-1" vertex="1">
          <mxGeometry y="120" width="190" height="30" as="geometry" />
        </mxCell>
        <mxCell id="GR_5a6v5A3B-gCJngwsE-14" value="PROCESS_NUMBER" style="text;strokeColor=none;fillColor=none;align=left;verticalAlign=middle;spacingLeft=4;spacingRight=4;overflow=hidden;points=[[0,0.5],[1,0.5]];portConstraint=eastwest;rotatable=0;rounded=0;sketch=1;" parent="GR_5a6v5A3B-gCJngwsE-1" vertex="1">
          <mxGeometry y="150" width="190" height="30" as="geometry" />
        </mxCell>
        <mxCell id="GR_5a6v5A3B-gCJngwsE-15" value="WORKCYCLE_COUNTER" style="text;strokeColor=none;fillColor=none;align=left;verticalAlign=middle;spacingLeft=4;spacingRight=4;overflow=hidden;points=[[0,0.5],[1,0.5]];portConstraint=eastwest;rotatable=0;rounded=0;sketch=1;" parent="GR_5a6v5A3B-gCJngwsE-1" vertex="1">
          <mxGeometry y="180" width="190" height="30" as="geometry" />
        </mxCell>
        <mxCell id="GR_5a6v5A3B-gCJngwsE-16" value="RESULT_STATE" style="text;strokeColor=none;fillColor=none;align=left;verticalAlign=middle;spacingLeft=4;spacingRight=4;overflow=hidden;points=[[0,0.5],[1,0.5]];portConstraint=eastwest;rotatable=0;rounded=0;sketch=1;" parent="GR_5a6v5A3B-gCJngwsE-1" vertex="1">
          <mxGeometry y="210" width="190" height="30" as="geometry" />
        </mxCell>
        <mxCell id="GR_5a6v5A3B-gCJngwsE-17" value="TYPE_NUMBER" style="text;strokeColor=none;fillColor=none;align=left;verticalAlign=middle;spacingLeft=4;spacingRight=4;overflow=hidden;points=[[0,0.5],[1,0.5]];portConstraint=eastwest;rotatable=0;rounded=0;sketch=1;" parent="GR_5a6v5A3B-gCJngwsE-1" vertex="1">
          <mxGeometry y="240" width="190" height="30" as="geometry" />
        </mxCell>
        <mxCell id="GR_5a6v5A3B-gCJngwsE-18" value="MACHINE_ID" style="text;strokeColor=none;fillColor=none;align=left;verticalAlign=middle;spacingLeft=4;spacingRight=4;overflow=hidden;points=[[0,0.5],[1,0.5]];portConstraint=eastwest;rotatable=0;rounded=0;sketch=1;" parent="GR_5a6v5A3B-gCJngwsE-1" vertex="1">
          <mxGeometry y="270" width="190" height="30" as="geometry" />
        </mxCell>
        <mxCell id="GR_5a6v5A3B-gCJngwsE-19" value="MES_RESULTS" style="swimlane;fontStyle=0;childLayout=stackLayout;horizontal=1;startSize=30;horizontalStack=0;resizeParent=1;resizeParentMax=0;resizeLast=0;collapsible=1;marginBottom=0;fillColor=#d5e8d4;strokeColor=#82b366;rounded=0;sketch=1;" parent="-fwYS_BHp-xkA_xOUPBB-37" vertex="1">
          <mxGeometry x="350" y="30" width="190" height="180" as="geometry">
            <mxRectangle x="340" y="120" width="100" height="30" as="alternateBounds" />
          </mxGeometry>
        </mxCell>
        <mxCell id="GR_5a6v5A3B-gCJngwsE-20" value="LOCATION_RESULT_UID" style="text;strokeColor=none;fillColor=none;align=left;verticalAlign=middle;spacingLeft=4;spacingRight=4;overflow=hidden;points=[[0,0.5],[1,0.5]];portConstraint=eastwest;rotatable=0;rounded=0;sketch=1;" parent="GR_5a6v5A3B-gCJngwsE-19" vertex="1">
          <mxGeometry y="30" width="190" height="30" as="geometry" />
        </mxCell>
        <mxCell id="GR_5a6v5A3B-gCJngwsE-21" value="UNIQUEPART_ID" style="text;strokeColor=none;fillColor=none;align=left;verticalAlign=middle;spacingLeft=4;spacingRight=4;overflow=hidden;points=[[0,0.5],[1,0.5]];portConstraint=eastwest;rotatable=0;rounded=0;sketch=1;" parent="GR_5a6v5A3B-gCJngwsE-19" vertex="1">
          <mxGeometry y="60" width="190" height="30" as="geometry" />
        </mxCell>
        <mxCell id="GR_5a6v5A3B-gCJngwsE-22" value="LOCATION_ID" style="text;strokeColor=none;fillColor=none;align=left;verticalAlign=middle;spacingLeft=4;spacingRight=4;overflow=hidden;points=[[0,0.5],[1,0.5]];portConstraint=eastwest;rotatable=0;rounded=0;sketch=1;" parent="GR_5a6v5A3B-gCJngwsE-19" vertex="1">
          <mxGeometry y="90" width="190" height="30" as="geometry" />
        </mxCell>
        <mxCell id="GR_5a6v5A3B-gCJngwsE-23" value="RESULT_DATE" style="text;strokeColor=none;fillColor=none;align=left;verticalAlign=middle;spacingLeft=4;spacingRight=4;overflow=hidden;points=[[0,0.5],[1,0.5]];portConstraint=eastwest;rotatable=0;rounded=0;sketch=1;" parent="GR_5a6v5A3B-gCJngwsE-19" vertex="1">
          <mxGeometry y="120" width="190" height="30" as="geometry" />
        </mxCell>
        <mxCell id="GR_5a6v5A3B-gCJngwsE-24" value="PARAM_NAME = toolData[1].toolID" style="text;strokeColor=none;fillColor=none;align=left;verticalAlign=middle;spacingLeft=4;spacingRight=4;overflow=hidden;points=[[0,0.5],[1,0.5]];portConstraint=eastwest;rotatable=0;rounded=0;sketch=1;" parent="GR_5a6v5A3B-gCJngwsE-19" vertex="1">
          <mxGeometry y="150" width="190" height="30" as="geometry" />
        </mxCell>
        <mxCell id="GR_5a6v5A3B-gCJngwsE-93" style="edgeStyle=orthogonalEdgeStyle;rounded=0;orthogonalLoop=1;jettySize=auto;html=1;curved=1;sketch=1;" parent="-fwYS_BHp-xkA_xOUPBB-37" source="GR_5a6v5A3B-gCJngwsE-2" target="GR_5a6v5A3B-gCJngwsE-20" edge="1">
          <mxGeometry relative="1" as="geometry" />
        </mxCell>
        <mxCell id="-fwYS_BHp-xkA_xOUPBB-111" value="" style="group;sketch=1;" parent="-fwYS_BHp-xkA_xOUPBB-37" vertex="1" connectable="0">
          <mxGeometry width="570" height="360" as="geometry" />
        </mxCell>
        <mxCell id="-fwYS_BHp-xkA_xOUPBB-34" value="" style="rounded=0;whiteSpace=wrap;html=1;fillColor=#d5e8d4;strokeColor=#82b366;sketch=1;" parent="-fwYS_BHp-xkA_xOUPBB-111" vertex="1">
          <mxGeometry width="570" height="360" as="geometry" />
        </mxCell>
        <mxCell id="-fwYS_BHp-xkA_xOUPBB-107" value="MES" style="text;html=1;strokeColor=none;fillColor=none;align=center;verticalAlign=middle;whiteSpace=wrap;rounded=0;sketch=1;hachureGap=4;fontFamily=Architects Daughter;fontSource=https%3A%2F%2Ffonts.googleapis.com%2Fcss%3Ffamily%3DArchitects%2BDaughter;fontSize=30;" parent="-fwYS_BHp-xkA_xOUPBB-111" vertex="1">
          <mxGeometry x="255" y="20" width="60" height="30" as="geometry" />
        </mxCell>
        <mxCell id="-fwYS_BHp-xkA_xOUPBB-38" value="" style="endArrow=classic;html=1;rounded=0;sketch=1;hachureGap=4;fontFamily=Architects Daughter;fontSource=https%3A%2F%2Ffonts.googleapis.com%2Fcss%3Ffamily%3DArchitects%2BDaughter;fontSize=16;startSize=14;endSize=14;sourcePerimeterSpacing=8;targetPerimeterSpacing=8;curved=1;exitX=0.5;exitY=1;exitDx=0;exitDy=0;entryX=0.5;entryY=0;entryDx=0;entryDy=0;" parent="1" source="-fwYS_BHp-xkA_xOUPBB-34" target="ZsybrVfRrKwF5AHkcDYL-3" edge="1">
          <mxGeometry relative="1" as="geometry">
            <mxPoint x="140" y="690" as="sourcePoint" />
            <mxPoint x="300" y="690" as="targetPoint" />
          </mxGeometry>
        </mxCell>
        <mxCell id="-fwYS_BHp-xkA_xOUPBB-39" value="Prog" style="edgeLabel;resizable=0;html=1;align=center;verticalAlign=middle;sketch=1;hachureGap=4;fontFamily=Architects Daughter;fontSource=https%3A%2F%2Ffonts.googleapis.com%2Fcss%3Ffamily%3DArchitects%2BDaughter;fontSize=20;" parent="-fwYS_BHp-xkA_xOUPBB-38" connectable="0" vertex="1">
          <mxGeometry relative="1" as="geometry" />
        </mxCell>
        <mxCell id="-fwYS_BHp-xkA_xOUPBB-40" value="Source" style="edgeLabel;resizable=0;html=1;align=left;verticalAlign=bottom;sketch=1;hachureGap=4;fontFamily=Architects Daughter;fontSource=https%3A%2F%2Ffonts.googleapis.com%2Fcss%3Ffamily%3DArchitects%2BDaughter;fontSize=20;" parent="-fwYS_BHp-xkA_xOUPBB-38" connectable="0" vertex="1">
          <mxGeometry x="-1" relative="1" as="geometry" />
        </mxCell>
        <mxCell id="-fwYS_BHp-xkA_xOUPBB-41" value="Target" style="edgeLabel;resizable=0;html=1;align=right;verticalAlign=bottom;sketch=1;hachureGap=4;fontFamily=Architects Daughter;fontSource=https%3A%2F%2Ffonts.googleapis.com%2Fcss%3Ffamily%3DArchitects%2BDaughter;fontSize=20;" parent="-fwYS_BHp-xkA_xOUPBB-38" connectable="0" vertex="1">
          <mxGeometry x="1" relative="1" as="geometry" />
        </mxCell>
        <mxCell id="-fwYS_BHp-xkA_xOUPBB-42" value="" style="endArrow=classic;html=1;rounded=0;sketch=1;hachureGap=4;fontFamily=Architects Daughter;fontSource=https%3A%2F%2Ffonts.googleapis.com%2Fcss%3Ffamily%3DArchitects%2BDaughter;fontSize=16;startSize=14;endSize=14;sourcePerimeterSpacing=8;targetPerimeterSpacing=8;curved=1;exitX=0.5;exitY=1;exitDx=0;exitDy=0;entryX=0.5;entryY=0;entryDx=0;entryDy=0;" parent="1" source="-fwYS_BHp-xkA_xOUPBB-34" target="-fwYS_BHp-xkA_xOUPBB-21" edge="1">
          <mxGeometry relative="1" as="geometry">
            <mxPoint x="365" y="659.9999999999998" as="sourcePoint" />
            <mxPoint x="215" y="760" as="targetPoint" />
          </mxGeometry>
        </mxCell>
        <mxCell id="-fwYS_BHp-xkA_xOUPBB-43" value="Prog" style="edgeLabel;resizable=0;html=1;align=center;verticalAlign=middle;sketch=1;hachureGap=4;fontFamily=Architects Daughter;fontSource=https%3A%2F%2Ffonts.googleapis.com%2Fcss%3Ffamily%3DArchitects%2BDaughter;fontSize=20;" parent="-fwYS_BHp-xkA_xOUPBB-42" connectable="0" vertex="1">
          <mxGeometry relative="1" as="geometry" />
        </mxCell>
        <mxCell id="-fwYS_BHp-xkA_xOUPBB-44" value="Source" style="edgeLabel;resizable=0;html=1;align=left;verticalAlign=bottom;sketch=1;hachureGap=4;fontFamily=Architects Daughter;fontSource=https%3A%2F%2Ffonts.googleapis.com%2Fcss%3Ffamily%3DArchitects%2BDaughter;fontSize=20;" parent="-fwYS_BHp-xkA_xOUPBB-42" connectable="0" vertex="1">
          <mxGeometry x="-1" relative="1" as="geometry" />
        </mxCell>
        <mxCell id="-fwYS_BHp-xkA_xOUPBB-45" value="Target" style="edgeLabel;resizable=0;html=1;align=right;verticalAlign=bottom;sketch=1;hachureGap=4;fontFamily=Architects Daughter;fontSource=https%3A%2F%2Ffonts.googleapis.com%2Fcss%3Ffamily%3DArchitects%2BDaughter;fontSize=20;" parent="-fwYS_BHp-xkA_xOUPBB-42" connectable="0" vertex="1">
          <mxGeometry x="1" relative="1" as="geometry" />
        </mxCell>
        <mxCell id="-fwYS_BHp-xkA_xOUPBB-46" value="Fixture_Lists" style="swimlane;fontStyle=0;childLayout=stackLayout;horizontal=1;startSize=30;horizontalStack=0;resizeParent=1;resizeParentMax=0;resizeLast=0;collapsible=1;marginBottom=0;rounded=0;sketch=1;fillColor=#fff2cc;strokeColor=#d6b656;" parent="1" vertex="1">
          <mxGeometry x="-300" y="235" width="190" height="150" as="geometry" />
        </mxCell>
        <mxCell id="-fwYS_BHp-xkA_xOUPBB-48" value="Fixture_ID" style="text;strokeColor=none;fillColor=none;align=left;verticalAlign=middle;spacingLeft=4;spacingRight=4;overflow=hidden;points=[[0,0.5],[1,0.5]];portConstraint=eastwest;rotatable=0;rounded=0;sketch=1;" parent="-fwYS_BHp-xkA_xOUPBB-46" vertex="1">
          <mxGeometry y="30" width="190" height="30" as="geometry" />
        </mxCell>
        <mxCell id="-fwYS_BHp-xkA_xOUPBB-49" value="Fixture_Name" style="text;strokeColor=none;fillColor=none;align=left;verticalAlign=middle;spacingLeft=4;spacingRight=4;overflow=hidden;points=[[0,0.5],[1,0.5]];portConstraint=eastwest;rotatable=0;rounded=0;sketch=1;" parent="-fwYS_BHp-xkA_xOUPBB-46" vertex="1">
          <mxGeometry y="60" width="190" height="30" as="geometry" />
        </mxCell>
        <mxCell id="-fwYS_BHp-xkA_xOUPBB-50" value="Fixture_Code" style="text;strokeColor=none;fillColor=none;align=left;verticalAlign=middle;spacingLeft=4;spacingRight=4;overflow=hidden;points=[[0,0.5],[1,0.5]];portConstraint=eastwest;rotatable=0;rounded=0;sketch=1;" parent="-fwYS_BHp-xkA_xOUPBB-46" vertex="1">
          <mxGeometry y="90" width="190" height="30" as="geometry" />
        </mxCell>
        <mxCell id="-fwYS_BHp-xkA_xOUPBB-51" value="Storage_Location" style="text;strokeColor=none;fillColor=none;align=left;verticalAlign=middle;spacingLeft=4;spacingRight=4;overflow=hidden;points=[[0,0.5],[1,0.5]];portConstraint=eastwest;rotatable=0;rounded=0;sketch=1;" parent="-fwYS_BHp-xkA_xOUPBB-46" vertex="1">
          <mxGeometry y="120" width="190" height="30" as="geometry" />
        </mxCell>
        <mxCell id="-fwYS_BHp-xkA_xOUPBB-53" value="Stations_MES_MWS" style="swimlane;fontStyle=0;childLayout=stackLayout;horizontal=1;startSize=30;horizontalStack=0;resizeParent=1;resizeParentMax=0;resizeLast=0;collapsible=1;marginBottom=0;rounded=0;sketch=1;fillColor=#fff2cc;strokeColor=#d6b656;" parent="1" vertex="1">
          <mxGeometry x="600" y="190" width="190" height="240" as="geometry" />
        </mxCell>
        <mxCell id="-fwYS_BHp-xkA_xOUPBB-54" value="IDX" style="text;strokeColor=none;fillColor=none;align=left;verticalAlign=middle;spacingLeft=4;spacingRight=4;overflow=hidden;points=[[0,0.5],[1,0.5]];portConstraint=eastwest;rotatable=0;rounded=0;sketch=1;" parent="-fwYS_BHp-xkA_xOUPBB-53" vertex="1">
          <mxGeometry y="30" width="190" height="30" as="geometry" />
        </mxCell>
        <mxCell id="-fwYS_BHp-xkA_xOUPBB-55" value="Station" style="text;strokeColor=none;fillColor=none;align=left;verticalAlign=middle;spacingLeft=4;spacingRight=4;overflow=hidden;points=[[0,0.5],[1,0.5]];portConstraint=eastwest;rotatable=0;rounded=0;sketch=1;" parent="-fwYS_BHp-xkA_xOUPBB-53" vertex="1">
          <mxGeometry y="60" width="190" height="30" as="geometry" />
        </mxCell>
        <mxCell id="-fwYS_BHp-xkA_xOUPBB-56" value="LOCATION_ID_MES" style="text;strokeColor=none;fillColor=none;align=left;verticalAlign=middle;spacingLeft=4;spacingRight=4;overflow=hidden;points=[[0,0.5],[1,0.5]];portConstraint=eastwest;rotatable=0;rounded=0;sketch=1;" parent="-fwYS_BHp-xkA_xOUPBB-53" vertex="1">
          <mxGeometry y="90" width="190" height="30" as="geometry" />
        </mxCell>
        <mxCell id="-fwYS_BHp-xkA_xOUPBB-58" value="PROCESS_NUMBER_MES" style="text;strokeColor=none;fillColor=none;align=left;verticalAlign=middle;spacingLeft=4;spacingRight=4;overflow=hidden;points=[[0,0.5],[1,0.5]];portConstraint=eastwest;rotatable=0;rounded=0;sketch=1;" parent="-fwYS_BHp-xkA_xOUPBB-53" vertex="1">
          <mxGeometry y="120" width="190" height="30" as="geometry" />
        </mxCell>
        <mxCell id="-fwYS_BHp-xkA_xOUPBB-59" value="MACHINE_ID_MES" style="text;strokeColor=none;fillColor=none;align=left;verticalAlign=middle;spacingLeft=4;spacingRight=4;overflow=hidden;points=[[0,0.5],[1,0.5]];portConstraint=eastwest;rotatable=0;rounded=0;sketch=1;" parent="-fwYS_BHp-xkA_xOUPBB-53" vertex="1">
          <mxGeometry y="150" width="190" height="30" as="geometry" />
        </mxCell>
        <mxCell id="-fwYS_BHp-xkA_xOUPBB-60" value="KNOTE_MWS" style="text;strokeColor=none;fillColor=none;align=left;verticalAlign=middle;spacingLeft=4;spacingRight=4;overflow=hidden;points=[[0,0.5],[1,0.5]];portConstraint=eastwest;rotatable=0;rounded=0;sketch=1;" parent="-fwYS_BHp-xkA_xOUPBB-53" vertex="1">
          <mxGeometry y="180" width="190" height="30" as="geometry" />
        </mxCell>
        <mxCell id="-fwYS_BHp-xkA_xOUPBB-57" value="Station_TYPE" style="text;strokeColor=none;fillColor=none;align=left;verticalAlign=middle;spacingLeft=4;spacingRight=4;overflow=hidden;points=[[0,0.5],[1,0.5]];portConstraint=eastwest;rotatable=0;rounded=0;sketch=1;" parent="-fwYS_BHp-xkA_xOUPBB-53" vertex="1">
          <mxGeometry y="210" width="190" height="30" as="geometry" />
        </mxCell>
        <mxCell id="-fwYS_BHp-xkA_xOUPBB-61" value="" style="edgeStyle=entityRelationEdgeStyle;fontSize=12;html=1;endArrow=ERoneToMany;rounded=0;sketch=1;hachureGap=4;fontFamily=Architects Daughter;fontSource=https%3A%2F%2Ffonts.googleapis.com%2Fcss%3Ffamily%3DArchitects%2BDaughter;startSize=14;endSize=14;sourcePerimeterSpacing=8;targetPerimeterSpacing=8;curved=1;exitX=1;exitY=0.5;exitDx=0;exitDy=0;entryX=0;entryY=0.5;entryDx=0;entryDy=0;" parent="1" source="-fwYS_BHp-xkA_xOUPBB-60" target="GR_5a6v5A3B-gCJngwsE-78" edge="1">
          <mxGeometry width="100" height="100" relative="1" as="geometry">
            <mxPoint x="760" y="720" as="sourcePoint" />
            <mxPoint x="610.0000000000005" y="750" as="targetPoint" />
          </mxGeometry>
        </mxCell>
        <mxCell id="-fwYS_BHp-xkA_xOUPBB-62" value="" style="edgeStyle=entityRelationEdgeStyle;fontSize=12;html=1;endArrow=ERoneToMany;rounded=0;sketch=1;hachureGap=4;fontFamily=Architects Daughter;fontSource=https%3A%2F%2Ffonts.googleapis.com%2Fcss%3Ffamily%3DArchitects%2BDaughter;startSize=14;endSize=14;sourcePerimeterSpacing=8;targetPerimeterSpacing=8;curved=1;exitX=1;exitY=0.5;exitDx=0;exitDy=0;entryX=0;entryY=0.5;entryDx=0;entryDy=0;" parent="1" source="-fwYS_BHp-xkA_xOUPBB-60" target="GR_5a6v5A3B-gCJngwsE-42" edge="1">
          <mxGeometry width="100" height="100" relative="1" as="geometry">
            <mxPoint x="750" y="639.9999999999998" as="sourcePoint" />
            <mxPoint x="910" y="474.9999999999998" as="targetPoint" />
          </mxGeometry>
        </mxCell>
        <mxCell id="-fwYS_BHp-xkA_xOUPBB-64" value="" style="edgeStyle=entityRelationEdgeStyle;fontSize=12;html=1;endArrow=ERoneToMany;rounded=0;sketch=1;hachureGap=4;fontFamily=Architects Daughter;fontSource=https%3A%2F%2Ffonts.googleapis.com%2Fcss%3Ffamily%3DArchitects%2BDaughter;startSize=14;endSize=14;sourcePerimeterSpacing=8;targetPerimeterSpacing=8;curved=1;entryX=0;entryY=0.5;entryDx=0;entryDy=0;exitX=1;exitY=0.5;exitDx=0;exitDy=0;" parent="1" source="-fwYS_BHp-xkA_xOUPBB-60" target="GR_5a6v5A3B-gCJngwsE-74" edge="1">
          <mxGeometry width="100" height="100" relative="1" as="geometry">
            <mxPoint x="740" y="630" as="sourcePoint" />
            <mxPoint x="1150" y="614.9999999999998" as="targetPoint" />
          </mxGeometry>
        </mxCell>
        <mxCell id="-fwYS_BHp-xkA_xOUPBB-65" value="" style="edgeStyle=entityRelationEdgeStyle;fontSize=12;html=1;endArrow=ERoneToMany;rounded=0;sketch=1;hachureGap=4;fontFamily=Architects Daughter;fontSource=https%3A%2F%2Ffonts.googleapis.com%2Fcss%3Ffamily%3DArchitects%2BDaughter;startSize=14;endSize=14;sourcePerimeterSpacing=8;targetPerimeterSpacing=8;curved=1;exitX=0;exitY=0.5;exitDx=0;exitDy=0;entryX=1;entryY=0.5;entryDx=0;entryDy=0;" parent="1" source="-fwYS_BHp-xkA_xOUPBB-56" target="-fwYS_BHp-xkA_xOUPBB-3" edge="1">
          <mxGeometry width="100" height="100" relative="1" as="geometry">
            <mxPoint x="670" y="690" as="sourcePoint" />
            <mxPoint x="770" y="590" as="targetPoint" />
          </mxGeometry>
        </mxCell>
        <mxCell id="-fwYS_BHp-xkA_xOUPBB-68" value="" style="sketch=1;aspect=fixed;html=1;points=[];align=center;image;fontSize=12;image=img/lib/mscae/Chart.svg;hachureGap=4;fontFamily=Architects Daughter;fontSource=https%3A%2F%2Ffonts.googleapis.com%2Fcss%3Ffamily%3DArchitects%2BDaughter;" parent="1" vertex="1">
          <mxGeometry x="40" y="960" width="208.33" height="200" as="geometry" />
        </mxCell>
        <mxCell id="-fwYS_BHp-xkA_xOUPBB-75" value="ICT_TEST_Time" style="swimlane;fontStyle=0;childLayout=stackLayout;horizontal=1;startSize=30;horizontalStack=0;resizeParent=1;resizeParentMax=0;resizeLast=0;collapsible=1;marginBottom=0;rounded=0;sketch=1;" parent="1" vertex="1">
          <mxGeometry x="1440" y="600" width="190" height="120" as="geometry" />
        </mxCell>
        <mxCell id="-fwYS_BHp-xkA_xOUPBB-76" value="PN" style="text;strokeColor=none;fillColor=none;align=left;verticalAlign=middle;spacingLeft=4;spacingRight=4;overflow=hidden;points=[[0,0.5],[1,0.5]];portConstraint=eastwest;rotatable=0;rounded=0;sketch=1;" parent="-fwYS_BHp-xkA_xOUPBB-75" vertex="1">
          <mxGeometry y="30" width="190" height="30" as="geometry" />
        </mxCell>
        <mxCell id="-fwYS_BHp-xkA_xOUPBB-77" value="Station" style="text;strokeColor=none;fillColor=none;align=left;verticalAlign=middle;spacingLeft=4;spacingRight=4;overflow=hidden;points=[[0,0.5],[1,0.5]];portConstraint=eastwest;rotatable=0;rounded=0;sketch=1;" parent="-fwYS_BHp-xkA_xOUPBB-75" vertex="1">
          <mxGeometry y="60" width="190" height="30" as="geometry" />
        </mxCell>
        <mxCell id="-fwYS_BHp-xkA_xOUPBB-78" value="TestTime" style="text;strokeColor=none;fillColor=none;align=left;verticalAlign=middle;spacingLeft=4;spacingRight=4;overflow=hidden;points=[[0,0.5],[1,0.5]];portConstraint=eastwest;rotatable=0;rounded=0;sketch=1;" parent="-fwYS_BHp-xkA_xOUPBB-75" vertex="1">
          <mxGeometry y="90" width="190" height="30" as="geometry" />
        </mxCell>
        <mxCell id="-fwYS_BHp-xkA_xOUPBB-79" value="" style="endArrow=classic;html=1;rounded=0;sketch=1;hachureGap=4;fontFamily=Architects Daughter;fontSource=https%3A%2F%2Ffonts.googleapis.com%2Fcss%3Ffamily%3DArchitects%2BDaughter;fontSize=16;startSize=14;endSize=14;sourcePerimeterSpacing=8;targetPerimeterSpacing=8;curved=1;exitX=0.5;exitY=1;exitDx=0;exitDy=0;entryX=0.5;entryY=0;entryDx=0;entryDy=0;" parent="1" source="-fwYS_BHp-xkA_xOUPBB-35" target="-fwYS_BHp-xkA_xOUPBB-75" edge="1">
          <mxGeometry relative="1" as="geometry">
            <mxPoint x="305" y="429.9999999999998" as="sourcePoint" />
            <mxPoint x="155" y="669.9999999999998" as="targetPoint" />
          </mxGeometry>
        </mxCell>
        <mxCell id="-fwYS_BHp-xkA_xOUPBB-80" value="Prog" style="edgeLabel;resizable=0;html=1;align=center;verticalAlign=middle;sketch=1;hachureGap=4;fontFamily=Architects Daughter;fontSource=https%3A%2F%2Ffonts.googleapis.com%2Fcss%3Ffamily%3DArchitects%2BDaughter;fontSize=20;" parent="-fwYS_BHp-xkA_xOUPBB-79" connectable="0" vertex="1">
          <mxGeometry relative="1" as="geometry" />
        </mxCell>
        <mxCell id="-fwYS_BHp-xkA_xOUPBB-81" value="Source" style="edgeLabel;resizable=0;html=1;align=left;verticalAlign=bottom;sketch=1;hachureGap=4;fontFamily=Architects Daughter;fontSource=https%3A%2F%2Ffonts.googleapis.com%2Fcss%3Ffamily%3DArchitects%2BDaughter;fontSize=20;" parent="-fwYS_BHp-xkA_xOUPBB-79" connectable="0" vertex="1">
          <mxGeometry x="-1" relative="1" as="geometry" />
        </mxCell>
        <mxCell id="-fwYS_BHp-xkA_xOUPBB-82" value="Target" style="edgeLabel;resizable=0;html=1;align=right;verticalAlign=bottom;sketch=1;hachureGap=4;fontFamily=Architects Daughter;fontSource=https%3A%2F%2Ffonts.googleapis.com%2Fcss%3Ffamily%3DArchitects%2BDaughter;fontSize=20;" parent="-fwYS_BHp-xkA_xOUPBB-79" connectable="0" vertex="1">
          <mxGeometry x="1" relative="1" as="geometry" />
        </mxCell>
        <mxCell id="-fwYS_BHp-xkA_xOUPBB-83" value="" style="verticalLabelPosition=bottom;shadow=0;dashed=0;align=center;html=1;verticalAlign=top;strokeWidth=1;shape=mxgraph.mockup.graphics.lineChart;strokeColor=none;strokeColor2=#666666;strokeColor3=#008cff;strokeColor4=#dddddd;sketch=1;hachureGap=4;fontFamily=Architects Daughter;fontSource=https%3A%2F%2Ffonts.googleapis.com%2Fcss%3Ffamily%3DArchitects%2BDaughter;fontSize=20;" parent="1" vertex="1">
          <mxGeometry x="320" y="950" width="400" height="200" as="geometry" />
        </mxCell>
        <mxCell id="-fwYS_BHp-xkA_xOUPBB-109" value="" style="group;fontSize=30;sketch=1;" parent="1" vertex="1" connectable="0">
          <mxGeometry x="-1250" y="-255" width="1100" height="430" as="geometry" />
        </mxCell>
        <mxCell id="-fwYS_BHp-xkA_xOUPBB-112" value="" style="group;sketch=1;" parent="-fwYS_BHp-xkA_xOUPBB-109" vertex="1" connectable="0">
          <mxGeometry width="1100" height="430" as="geometry" />
        </mxCell>
        <mxCell id="-fwYS_BHp-xkA_xOUPBB-105" value="" style="rounded=0;whiteSpace=wrap;html=1;sketch=1;hachureGap=4;strokeColor=none;fontFamily=Architects Daughter;fontSource=https%3A%2F%2Ffonts.googleapis.com%2Fcss%3Ffamily%3DArchitects%2BDaughter;fontSize=20;fillColor=#ffe6cc;" parent="-fwYS_BHp-xkA_xOUPBB-112" vertex="1">
          <mxGeometry width="1100" height="430" as="geometry" />
        </mxCell>
        <mxCell id="-fwYS_BHp-xkA_xOUPBB-106" value="Fixture" style="text;html=1;strokeColor=none;fillColor=none;align=center;verticalAlign=middle;whiteSpace=wrap;rounded=0;sketch=1;hachureGap=4;fontFamily=Architects Daughter;fontSource=https%3A%2F%2Ffonts.googleapis.com%2Fcss%3Ffamily%3DArchitects%2BDaughter;fontSize=30;" parent="-fwYS_BHp-xkA_xOUPBB-112" vertex="1">
          <mxGeometry x="40" y="20" width="60" height="30" as="geometry" />
        </mxCell>
        <mxCell id="-fwYS_BHp-xkA_xOUPBB-113" value="Failure_Parts" style="swimlane;fontStyle=0;childLayout=stackLayout;horizontal=1;startSize=30;horizontalStack=0;resizeParent=1;resizeParentMax=0;resizeLast=0;collapsible=1;marginBottom=0;rounded=0;sketch=1;" parent="1" vertex="1">
          <mxGeometry x="600" y="510" width="190" height="210" as="geometry" />
        </mxCell>
        <mxCell id="-fwYS_BHp-xkA_xOUPBB-114" value="DATE" style="text;strokeColor=none;fillColor=none;align=left;verticalAlign=middle;spacingLeft=4;spacingRight=4;overflow=hidden;points=[[0,0.5],[1,0.5]];portConstraint=eastwest;rotatable=0;rounded=0;sketch=1;" parent="-fwYS_BHp-xkA_xOUPBB-113" vertex="1">
          <mxGeometry y="30" width="190" height="30" as="geometry" />
        </mxCell>
        <mxCell id="-fwYS_BHp-xkA_xOUPBB-119" value="UNIQUEPART_ID" style="text;strokeColor=none;fillColor=none;align=left;verticalAlign=middle;spacingLeft=4;spacingRight=4;overflow=hidden;points=[[0,0.5],[1,0.5]];portConstraint=eastwest;rotatable=0;rounded=0;sketch=1;" parent="-fwYS_BHp-xkA_xOUPBB-113" vertex="1">
          <mxGeometry y="60" width="190" height="30" as="geometry" />
        </mxCell>
        <mxCell id="-fwYS_BHp-xkA_xOUPBB-115" value="TYPE_NUMBER" style="text;strokeColor=none;fillColor=none;align=left;verticalAlign=middle;spacingLeft=4;spacingRight=4;overflow=hidden;points=[[0,0.5],[1,0.5]];portConstraint=eastwest;rotatable=0;rounded=0;sketch=1;" parent="-fwYS_BHp-xkA_xOUPBB-113" vertex="1">
          <mxGeometry y="90" width="190" height="30" as="geometry" />
        </mxCell>
        <mxCell id="-fwYS_BHp-xkA_xOUPBB-116" value="LOCATION_ID" style="text;strokeColor=none;fillColor=none;align=left;verticalAlign=middle;spacingLeft=4;spacingRight=4;overflow=hidden;points=[[0,0.5],[1,0.5]];portConstraint=eastwest;rotatable=0;rounded=0;sketch=1;" parent="-fwYS_BHp-xkA_xOUPBB-113" vertex="1">
          <mxGeometry y="120" width="190" height="30" as="geometry" />
        </mxCell>
        <mxCell id="-fwYS_BHp-xkA_xOUPBB-117" value="MACHINE_ID" style="text;strokeColor=none;fillColor=none;align=left;verticalAlign=middle;spacingLeft=4;spacingRight=4;overflow=hidden;points=[[0,0.5],[1,0.5]];portConstraint=eastwest;rotatable=0;rounded=0;sketch=1;" parent="-fwYS_BHp-xkA_xOUPBB-113" vertex="1">
          <mxGeometry y="150" width="190" height="30" as="geometry" />
        </mxCell>
        <mxCell id="-fwYS_BHp-xkA_xOUPBB-120" value="RESULT_STATE=2" style="text;strokeColor=none;fillColor=none;align=left;verticalAlign=middle;spacingLeft=4;spacingRight=4;overflow=hidden;points=[[0,0.5],[1,0.5]];portConstraint=eastwest;rotatable=0;rounded=0;sketch=1;" parent="-fwYS_BHp-xkA_xOUPBB-113" vertex="1">
          <mxGeometry y="180" width="190" height="30" as="geometry" />
        </mxCell>
        <mxCell id="-fwYS_BHp-xkA_xOUPBB-155" value="" style="endArrow=classic;html=1;rounded=0;sketch=1;hachureGap=4;fontFamily=Architects Daughter;fontSource=https%3A%2F%2Ffonts.googleapis.com%2Fcss%3Ffamily%3DArchitects%2BDaughter;fontSize=16;startSize=14;endSize=14;sourcePerimeterSpacing=8;targetPerimeterSpacing=8;curved=1;entryX=0.5;entryY=0;entryDx=0;entryDy=0;" parent="1" target="-fwYS_BHp-xkA_xOUPBB-113" edge="1">
          <mxGeometry relative="1" as="geometry">
            <mxPoint x="375" y="140" as="sourcePoint" />
            <mxPoint x="410" y="585" as="targetPoint" />
            <Array as="points">
              <mxPoint x="480" y="360" />
            </Array>
          </mxGeometry>
        </mxCell>
        <mxCell id="-fwYS_BHp-xkA_xOUPBB-156" value="Prog" style="edgeLabel;resizable=0;html=1;align=center;verticalAlign=middle;sketch=1;hachureGap=4;fontFamily=Architects Daughter;fontSource=https%3A%2F%2Ffonts.googleapis.com%2Fcss%3Ffamily%3DArchitects%2BDaughter;fontSize=20;" parent="-fwYS_BHp-xkA_xOUPBB-155" connectable="0" vertex="1">
          <mxGeometry relative="1" as="geometry" />
        </mxCell>
        <mxCell id="-fwYS_BHp-xkA_xOUPBB-157" value="Source" style="edgeLabel;resizable=0;html=1;align=left;verticalAlign=bottom;sketch=1;hachureGap=4;fontFamily=Architects Daughter;fontSource=https%3A%2F%2Ffonts.googleapis.com%2Fcss%3Ffamily%3DArchitects%2BDaughter;fontSize=20;" parent="-fwYS_BHp-xkA_xOUPBB-155" connectable="0" vertex="1">
          <mxGeometry x="-1" relative="1" as="geometry" />
        </mxCell>
        <mxCell id="-fwYS_BHp-xkA_xOUPBB-158" value="Target" style="edgeLabel;resizable=0;html=1;align=right;verticalAlign=bottom;sketch=1;hachureGap=4;fontFamily=Architects Daughter;fontSource=https%3A%2F%2Ffonts.googleapis.com%2Fcss%3Ffamily%3DArchitects%2BDaughter;fontSize=20;" parent="-fwYS_BHp-xkA_xOUPBB-155" connectable="0" vertex="1">
          <mxGeometry x="1" relative="1" as="geometry" />
        </mxCell>
        <mxCell id="-uEJaageqIOcLVfMdR6R-1" value="" style="edgeStyle=entityRelationEdgeStyle;fontSize=12;html=1;endArrow=ERmandOne;startArrow=ERmandOne;rounded=0;sketch=1;hachureGap=4;fontFamily=Architects Daughter;fontSource=https%3A%2F%2Ffonts.googleapis.com%2Fcss%3Ffamily%3DArchitects%2BDaughter;startSize=14;endSize=14;sourcePerimeterSpacing=8;targetPerimeterSpacing=8;curved=1;exitX=1;exitY=0.5;exitDx=0;exitDy=0;entryX=0;entryY=0.5;entryDx=0;entryDy=0;" parent="1" source="-fwYS_BHp-xkA_xOUPBB-48" target="-fwYS_BHp-xkA_xOUPBB-24" edge="1">
          <mxGeometry width="100" height="100" relative="1" as="geometry">
            <mxPoint x="-10" y="440" as="sourcePoint" />
            <mxPoint x="90" y="340" as="targetPoint" />
          </mxGeometry>
        </mxCell>
        <mxCell id="-uEJaageqIOcLVfMdR6R-3" value="" style="edgeStyle=entityRelationEdgeStyle;fontSize=12;html=1;endArrow=ERoneToMany;rounded=0;sketch=1;hachureGap=4;fontFamily=Architects Daughter;fontSource=https%3A%2F%2Ffonts.googleapis.com%2Fcss%3Ffamily%3DArchitects%2BDaughter;startSize=14;endSize=14;sourcePerimeterSpacing=8;targetPerimeterSpacing=8;curved=1;entryX=1;entryY=0.5;entryDx=0;entryDy=0;exitX=1;exitY=0.5;exitDx=0;exitDy=0;" parent="1" source="-fwYS_BHp-xkA_xOUPBB-56" target="-fwYS_BHp-xkA_xOUPBB-116" edge="1">
          <mxGeometry width="100" height="100" relative="1" as="geometry">
            <mxPoint x="647" y="305" as="sourcePoint" />
            <mxPoint x="440" y="645" as="targetPoint" />
          </mxGeometry>
        </mxCell>
        <mxCell id="ZsybrVfRrKwF5AHkcDYL-3" value="ICTPannelOutput@SZHAEAPP62" style="swimlane;fontStyle=0;childLayout=stackLayout;horizontal=1;startSize=30;horizontalStack=0;resizeParent=1;resizeParentMax=0;resizeLast=0;collapsible=1;marginBottom=0;rounded=0;sketch=1;fillColor=#bac8d3;strokeColor=#23445d;" parent="1" vertex="1">
          <mxGeometry x="248.33" y="250" width="190" height="270" as="geometry" />
        </mxCell>
        <mxCell id="ZsybrVfRrKwF5AHkcDYL-4" value="ID" style="text;strokeColor=none;fillColor=none;align=left;verticalAlign=middle;spacingLeft=4;spacingRight=4;overflow=hidden;points=[[0,0.5],[1,0.5]];portConstraint=eastwest;rotatable=0;rounded=0;sketch=1;" parent="ZsybrVfRrKwF5AHkcDYL-3" vertex="1">
          <mxGeometry y="30" width="190" height="30" as="geometry" />
        </mxCell>
        <mxCell id="ZsybrVfRrKwF5AHkcDYL-5" value="UNIQUEPART_ID" style="text;strokeColor=none;fillColor=none;align=left;verticalAlign=middle;spacingLeft=4;spacingRight=4;overflow=hidden;points=[[0,0.5],[1,0.5]];portConstraint=eastwest;rotatable=0;rounded=0;sketch=1;" parent="ZsybrVfRrKwF5AHkcDYL-3" vertex="1">
          <mxGeometry y="60" width="190" height="30" as="geometry" />
        </mxCell>
        <mxCell id="ZsybrVfRrKwF5AHkcDYL-6" value="LOCATION_ID" style="text;strokeColor=none;fillColor=none;align=left;verticalAlign=middle;spacingLeft=4;spacingRight=4;overflow=hidden;points=[[0,0.5],[1,0.5]];portConstraint=eastwest;rotatable=0;rounded=0;sketch=1;" parent="ZsybrVfRrKwF5AHkcDYL-3" vertex="1">
          <mxGeometry y="90" width="190" height="30" as="geometry" />
        </mxCell>
        <mxCell id="ZsybrVfRrKwF5AHkcDYL-7" value="RESULT_DATE" style="text;strokeColor=none;fillColor=none;align=left;verticalAlign=middle;spacingLeft=4;spacingRight=4;overflow=hidden;points=[[0,0.5],[1,0.5]];portConstraint=eastwest;rotatable=0;rounded=0;sketch=1;" parent="ZsybrVfRrKwF5AHkcDYL-3" vertex="1">
          <mxGeometry y="120" width="190" height="30" as="geometry" />
        </mxCell>
        <mxCell id="ZsybrVfRrKwF5AHkcDYL-8" value="PROCESS_NUMBER" style="text;strokeColor=none;fillColor=none;align=left;verticalAlign=middle;spacingLeft=4;spacingRight=4;overflow=hidden;points=[[0,0.5],[1,0.5]];portConstraint=eastwest;rotatable=0;rounded=0;sketch=1;" parent="ZsybrVfRrKwF5AHkcDYL-3" vertex="1">
          <mxGeometry y="150" width="190" height="30" as="geometry" />
        </mxCell>
        <mxCell id="ZsybrVfRrKwF5AHkcDYL-9" value="RESULT_STATE" style="text;strokeColor=none;fillColor=none;align=left;verticalAlign=middle;spacingLeft=4;spacingRight=4;overflow=hidden;points=[[0,0.5],[1,0.5]];portConstraint=eastwest;rotatable=0;rounded=0;sketch=1;" parent="ZsybrVfRrKwF5AHkcDYL-3" vertex="1">
          <mxGeometry y="180" width="190" height="30" as="geometry" />
        </mxCell>
        <mxCell id="ZsybrVfRrKwF5AHkcDYL-11" value="TYPE_NUMBER" style="text;strokeColor=none;fillColor=none;align=left;verticalAlign=middle;spacingLeft=4;spacingRight=4;overflow=hidden;points=[[0,0.5],[1,0.5]];portConstraint=eastwest;rotatable=0;rounded=0;sketch=1;" parent="ZsybrVfRrKwF5AHkcDYL-3" vertex="1">
          <mxGeometry y="210" width="190" height="30" as="geometry" />
        </mxCell>
        <mxCell id="ZsybrVfRrKwF5AHkcDYL-10" value="MACHINE_ID" style="text;strokeColor=none;fillColor=none;align=left;verticalAlign=middle;spacingLeft=4;spacingRight=4;overflow=hidden;points=[[0,0.5],[1,0.5]];portConstraint=eastwest;rotatable=0;rounded=0;sketch=1;" parent="ZsybrVfRrKwF5AHkcDYL-3" vertex="1">
          <mxGeometry y="240" width="190" height="30" as="geometry" />
        </mxCell>
        <mxCell id="ZsybrVfRrKwF5AHkcDYL-12" value="" style="endArrow=classic;html=1;rounded=0;sketch=1;hachureGap=4;fontFamily=Architects Daughter;fontSource=https%3A%2F%2Ffonts.googleapis.com%2Fcss%3Ffamily%3DArchitects%2BDaughter;fontSize=16;startSize=14;endSize=14;sourcePerimeterSpacing=8;targetPerimeterSpacing=8;curved=1;exitX=0.508;exitY=1.067;exitDx=0;exitDy=0;entryX=0.5;entryY=0;entryDx=0;entryDy=0;exitPerimeter=0;" parent="1" source="ZsybrVfRrKwF5AHkcDYL-10" target="-fwYS_BHp-xkA_xOUPBB-1" edge="1">
          <mxGeometry relative="1" as="geometry">
            <mxPoint x="385" y="150" as="sourcePoint" />
            <mxPoint x="45" y="420" as="targetPoint" />
          </mxGeometry>
        </mxCell>
        <mxCell id="ZsybrVfRrKwF5AHkcDYL-13" value="Prog" style="edgeLabel;resizable=0;html=1;align=center;verticalAlign=middle;sketch=1;hachureGap=4;fontFamily=Architects Daughter;fontSource=https%3A%2F%2Ffonts.googleapis.com%2Fcss%3Ffamily%3DArchitects%2BDaughter;fontSize=20;" parent="ZsybrVfRrKwF5AHkcDYL-12" connectable="0" vertex="1">
          <mxGeometry relative="1" as="geometry" />
        </mxCell>
        <mxCell id="ZsybrVfRrKwF5AHkcDYL-14" value="Source" style="edgeLabel;resizable=0;html=1;align=left;verticalAlign=bottom;sketch=1;hachureGap=4;fontFamily=Architects Daughter;fontSource=https%3A%2F%2Ffonts.googleapis.com%2Fcss%3Ffamily%3DArchitects%2BDaughter;fontSize=20;" parent="ZsybrVfRrKwF5AHkcDYL-12" connectable="0" vertex="1">
          <mxGeometry x="-1" relative="1" as="geometry" />
        </mxCell>
        <mxCell id="ZsybrVfRrKwF5AHkcDYL-15" value="Target" style="edgeLabel;resizable=0;html=1;align=right;verticalAlign=bottom;sketch=1;hachureGap=4;fontFamily=Architects Daughter;fontSource=https%3A%2F%2Ffonts.googleapis.com%2Fcss%3Ffamily%3DArchitects%2BDaughter;fontSize=20;" parent="ZsybrVfRrKwF5AHkcDYL-12" connectable="0" vertex="1">
          <mxGeometry x="1" relative="1" as="geometry" />
        </mxCell>
        <mxCell id="MYSW4MGK3DCAOBEJqjKi-1" value="CFPROCESS" style="swimlane;fontStyle=1;childLayout=stackLayout;horizontal=1;startSize=30;horizontalStack=0;resizeParent=1;resizeParentMax=0;resizeLast=0;collapsible=1;marginBottom=0;rounded=0;sketch=1;fillColor=#ffcc99;strokeColor=#36393d;" parent="1" vertex="1">
          <mxGeometry x="248.32999999999998" y="-910" width="190" height="630" as="geometry" />
        </mxCell>
        <mxCell id="MYSW4MGK3DCAOBEJqjKi-2" value="PROCESSNUMBER" style="text;strokeColor=none;fillColor=none;align=left;verticalAlign=middle;spacingLeft=4;spacingRight=4;overflow=hidden;points=[[0,0.5],[1,0.5]];portConstraint=eastwest;rotatable=0;rounded=0;sketch=1;" parent="MYSW4MGK3DCAOBEJqjKi-1" vertex="1">
          <mxGeometry y="30" width="190" height="30" as="geometry" />
        </mxCell>
        <mxCell id="MYSW4MGK3DCAOBEJqjKi-3" value="PRODUCTTYPE" style="text;strokeColor=none;fillColor=none;align=left;verticalAlign=middle;spacingLeft=4;spacingRight=4;overflow=hidden;points=[[0,0.5],[1,0.5]];portConstraint=eastwest;rotatable=0;rounded=0;sketch=1;fontStyle=1" parent="MYSW4MGK3DCAOBEJqjKi-1" vertex="1">
          <mxGeometry y="60" width="190" height="30" as="geometry" />
        </mxCell>
        <mxCell id="MYSW4MGK3DCAOBEJqjKi-4" value="DESCRIPTION" style="text;strokeColor=none;fillColor=none;align=left;verticalAlign=middle;spacingLeft=4;spacingRight=4;overflow=hidden;points=[[0,0.5],[1,0.5]];portConstraint=eastwest;rotatable=0;rounded=0;sketch=1;fontStyle=1" parent="MYSW4MGK3DCAOBEJqjKi-1" vertex="1">
          <mxGeometry y="90" width="190" height="30" as="geometry" />
        </mxCell>
        <mxCell id="MYSW4MGK3DCAOBEJqjKi-5" value="PROGRAM (NULL)" style="text;strokeColor=none;fillColor=none;align=left;verticalAlign=middle;spacingLeft=4;spacingRight=4;overflow=hidden;points=[[0,0.5],[1,0.5]];portConstraint=eastwest;rotatable=0;rounded=0;sketch=1;" parent="MYSW4MGK3DCAOBEJqjKi-1" vertex="1">
          <mxGeometry y="120" width="190" height="30" as="geometry" />
        </mxCell>
        <mxCell id="MYSW4MGK3DCAOBEJqjKi-6" value="TOOLS" style="text;strokeColor=none;fillColor=none;align=left;verticalAlign=middle;spacingLeft=4;spacingRight=4;overflow=hidden;points=[[0,0.5],[1,0.5]];portConstraint=eastwest;rotatable=0;rounded=0;sketch=1;" parent="MYSW4MGK3DCAOBEJqjKi-1" vertex="1">
          <mxGeometry y="150" width="190" height="30" as="geometry" />
        </mxCell>
        <mxCell id="MYSW4MGK3DCAOBEJqjKi-7" value="PARAMETERS" style="text;strokeColor=none;fillColor=none;align=left;verticalAlign=middle;spacingLeft=4;spacingRight=4;overflow=hidden;points=[[0,0.5],[1,0.5]];portConstraint=eastwest;rotatable=0;rounded=0;sketch=1;" parent="MYSW4MGK3DCAOBEJqjKi-1" vertex="1">
          <mxGeometry y="180" width="190" height="30" as="geometry" />
        </mxCell>
        <mxCell id="MYSW4MGK3DCAOBEJqjKi-8" value="MATERIALTYPE" style="text;strokeColor=none;fillColor=none;align=left;verticalAlign=middle;spacingLeft=4;spacingRight=4;overflow=hidden;points=[[0,0.5],[1,0.5]];portConstraint=eastwest;rotatable=0;rounded=0;sketch=1;" parent="MYSW4MGK3DCAOBEJqjKi-1" vertex="1">
          <mxGeometry y="210" width="190" height="30" as="geometry" />
        </mxCell>
        <mxCell id="MYSW4MGK3DCAOBEJqjKi-9" value="THEOR_CYCLE_TIME" style="text;strokeColor=none;fillColor=none;align=left;verticalAlign=middle;spacingLeft=4;spacingRight=4;overflow=hidden;points=[[0,0.5],[1,0.5]];portConstraint=eastwest;rotatable=0;rounded=0;sketch=1;" parent="MYSW4MGK3DCAOBEJqjKi-1" vertex="1">
          <mxGeometry y="240" width="190" height="30" as="geometry" />
        </mxCell>
        <mxCell id="MYSW4MGK3DCAOBEJqjKi-10" value="TARGET_FOR" style="text;strokeColor=none;fillColor=none;align=left;verticalAlign=middle;spacingLeft=4;spacingRight=4;overflow=hidden;points=[[0,0.5],[1,0.5]];portConstraint=eastwest;rotatable=0;rounded=0;sketch=1;" parent="MYSW4MGK3DCAOBEJqjKi-1" vertex="1">
          <mxGeometry y="270" width="190" height="30" as="geometry" />
        </mxCell>
        <mxCell id="MYSW4MGK3DCAOBEJqjKi-11" value="MAX_CYCLE_TIME =0" style="text;strokeColor=none;fillColor=none;align=left;verticalAlign=middle;spacingLeft=4;spacingRight=4;overflow=hidden;points=[[0,0.5],[1,0.5]];portConstraint=eastwest;rotatable=0;rounded=0;sketch=1;" parent="MYSW4MGK3DCAOBEJqjKi-1" vertex="1">
          <mxGeometry y="300" width="190" height="30" as="geometry" />
        </mxCell>
        <mxCell id="MYSW4MGK3DCAOBEJqjKi-12" value="ENTRYEXIT = 1" style="text;strokeColor=none;fillColor=none;align=left;verticalAlign=middle;spacingLeft=4;spacingRight=4;overflow=hidden;points=[[0,0.5],[1,0.5]];portConstraint=eastwest;rotatable=0;rounded=0;sketch=1;fontStyle=1" parent="MYSW4MGK3DCAOBEJqjKi-1" vertex="1">
          <mxGeometry y="330" width="190" height="30" as="geometry" />
        </mxCell>
        <mxCell id="MYSW4MGK3DCAOBEJqjKi-13" value="CREATIONDATE" style="text;strokeColor=none;fillColor=none;align=left;verticalAlign=middle;spacingLeft=4;spacingRight=4;overflow=hidden;points=[[0,0.5],[1,0.5]];portConstraint=eastwest;rotatable=0;rounded=0;sketch=1;fontStyle=1" parent="MYSW4MGK3DCAOBEJqjKi-1" vertex="1">
          <mxGeometry y="360" width="190" height="30" as="geometry" />
        </mxCell>
        <mxCell id="MYSW4MGK3DCAOBEJqjKi-14" value="SYMBOL_X" style="text;strokeColor=none;fillColor=none;align=left;verticalAlign=middle;spacingLeft=4;spacingRight=4;overflow=hidden;points=[[0,0.5],[1,0.5]];portConstraint=eastwest;rotatable=0;rounded=0;sketch=1;" parent="MYSW4MGK3DCAOBEJqjKi-1" vertex="1">
          <mxGeometry y="390" width="190" height="30" as="geometry" />
        </mxCell>
        <mxCell id="MYSW4MGK3DCAOBEJqjKi-16" value="SYMBOL_Y" style="text;strokeColor=none;fillColor=none;align=left;verticalAlign=middle;spacingLeft=4;spacingRight=4;overflow=hidden;points=[[0,0.5],[1,0.5]];portConstraint=eastwest;rotatable=0;rounded=0;sketch=1;" parent="MYSW4MGK3DCAOBEJqjKi-1" vertex="1">
          <mxGeometry y="420" width="190" height="30" as="geometry" />
        </mxCell>
        <mxCell id="MYSW4MGK3DCAOBEJqjKi-17" value="SYMBOL_ROTATION" style="text;strokeColor=none;fillColor=none;align=left;verticalAlign=middle;spacingLeft=4;spacingRight=4;overflow=hidden;points=[[0,0.5],[1,0.5]];portConstraint=eastwest;rotatable=0;rounded=0;sketch=1;" parent="MYSW4MGK3DCAOBEJqjKi-1" vertex="1">
          <mxGeometry y="450" width="190" height="30" as="geometry" />
        </mxCell>
        <mxCell id="MYSW4MGK3DCAOBEJqjKi-18" value="STATUS" style="text;strokeColor=none;fillColor=none;align=left;verticalAlign=middle;spacingLeft=4;spacingRight=4;overflow=hidden;points=[[0,0.5],[1,0.5]];portConstraint=eastwest;rotatable=0;rounded=0;sketch=1;" parent="MYSW4MGK3DCAOBEJqjKi-1" vertex="1">
          <mxGeometry y="480" width="190" height="30" as="geometry" />
        </mxCell>
        <mxCell id="MYSW4MGK3DCAOBEJqjKi-19" value="JIGIDTOP" style="text;strokeColor=none;fillColor=none;align=left;verticalAlign=middle;spacingLeft=4;spacingRight=4;overflow=hidden;points=[[0,0.5],[1,0.5]];portConstraint=eastwest;rotatable=0;rounded=0;sketch=1;fontStyle=1" parent="MYSW4MGK3DCAOBEJqjKi-1" vertex="1">
          <mxGeometry y="510" width="190" height="30" as="geometry" />
        </mxCell>
        <mxCell id="MYSW4MGK3DCAOBEJqjKi-20" value="JIGIDTOPMASK" style="text;strokeColor=none;fillColor=none;align=left;verticalAlign=middle;spacingLeft=4;spacingRight=4;overflow=hidden;points=[[0,0.5],[1,0.5]];portConstraint=eastwest;rotatable=0;rounded=0;sketch=1;fontStyle=1" parent="MYSW4MGK3DCAOBEJqjKi-1" vertex="1">
          <mxGeometry y="540" width="190" height="30" as="geometry" />
        </mxCell>
        <mxCell id="MYSW4MGK3DCAOBEJqjKi-21" value="JIGIDBOT" style="text;strokeColor=none;fillColor=none;align=left;verticalAlign=middle;spacingLeft=4;spacingRight=4;overflow=hidden;points=[[0,0.5],[1,0.5]];portConstraint=eastwest;rotatable=0;rounded=0;sketch=1;fontStyle=1" parent="MYSW4MGK3DCAOBEJqjKi-1" vertex="1">
          <mxGeometry y="570" width="190" height="30" as="geometry" />
        </mxCell>
        <mxCell id="MYSW4MGK3DCAOBEJqjKi-22" value="JIGIDBOTMASK" style="text;strokeColor=none;fillColor=none;align=left;verticalAlign=middle;spacingLeft=4;spacingRight=4;overflow=hidden;points=[[0,0.5],[1,0.5]];portConstraint=eastwest;rotatable=0;rounded=0;sketch=1;fontStyle=1" parent="MYSW4MGK3DCAOBEJqjKi-1" vertex="1">
          <mxGeometry y="600" width="190" height="30" as="geometry" />
        </mxCell>
        <mxCell id="MYSW4MGK3DCAOBEJqjKi-23" value="CFPRODUCTTYPE" style="swimlane;fontStyle=1;childLayout=stackLayout;horizontal=1;startSize=30;horizontalStack=0;resizeParent=1;resizeParentMax=0;resizeLast=0;collapsible=1;marginBottom=0;rounded=0;sketch=1;fillColor=#ffcc99;strokeColor=#36393d;" parent="1" vertex="1">
          <mxGeometry x="-20" y="-1090" width="190" height="180" as="geometry" />
        </mxCell>
        <mxCell id="MYSW4MGK3DCAOBEJqjKi-24" value="PRODUCTTYPE" style="text;strokeColor=none;fillColor=none;align=left;verticalAlign=middle;spacingLeft=4;spacingRight=4;overflow=hidden;points=[[0,0.5],[1,0.5]];portConstraint=eastwest;rotatable=0;rounded=0;sketch=1;fontStyle=1" parent="MYSW4MGK3DCAOBEJqjKi-23" vertex="1">
          <mxGeometry y="30" width="190" height="30" as="geometry" />
        </mxCell>
        <mxCell id="MYSW4MGK3DCAOBEJqjKi-25" value="THEOR_CYCLE_TIME" style="text;strokeColor=none;fillColor=none;align=left;verticalAlign=middle;spacingLeft=4;spacingRight=4;overflow=hidden;points=[[0,0.5],[1,0.5]];portConstraint=eastwest;rotatable=0;rounded=0;sketch=1;fontStyle=1" parent="MYSW4MGK3DCAOBEJqjKi-23" vertex="1">
          <mxGeometry y="60" width="190" height="30" as="geometry" />
        </mxCell>
        <mxCell id="MYSW4MGK3DCAOBEJqjKi-26" value="TARGET_FOR" style="text;strokeColor=none;fillColor=none;align=left;verticalAlign=middle;spacingLeft=4;spacingRight=4;overflow=hidden;points=[[0,0.5],[1,0.5]];portConstraint=eastwest;rotatable=0;rounded=0;sketch=1;fontStyle=1" parent="MYSW4MGK3DCAOBEJqjKi-23" vertex="1">
          <mxGeometry y="90" width="190" height="30" as="geometry" />
        </mxCell>
        <mxCell id="MYSW4MGK3DCAOBEJqjKi-27" value="CREATIONDATE" style="text;strokeColor=none;fillColor=none;align=left;verticalAlign=middle;spacingLeft=4;spacingRight=4;overflow=hidden;points=[[0,0.5],[1,0.5]];portConstraint=eastwest;rotatable=0;rounded=0;sketch=1;fontStyle=1" parent="MYSW4MGK3DCAOBEJqjKi-23" vertex="1">
          <mxGeometry y="120" width="190" height="30" as="geometry" />
        </mxCell>
        <mxCell id="MYSW4MGK3DCAOBEJqjKi-28" value="HOLDERTYPE" style="text;strokeColor=none;fillColor=none;align=left;verticalAlign=middle;spacingLeft=4;spacingRight=4;overflow=hidden;points=[[0,0.5],[1,0.5]];portConstraint=eastwest;rotatable=0;rounded=0;sketch=1;fontStyle=1" parent="MYSW4MGK3DCAOBEJqjKi-23" vertex="1">
          <mxGeometry y="150" width="190" height="30" as="geometry" />
        </mxCell>
        <mxCell id="MYSW4MGK3DCAOBEJqjKi-45" value="" style="edgeStyle=entityRelationEdgeStyle;fontSize=12;html=1;endArrow=ERoneToMany;rounded=0;" parent="1" source="MYSW4MGK3DCAOBEJqjKi-24" target="MYSW4MGK3DCAOBEJqjKi-3" edge="1">
          <mxGeometry width="100" height="100" relative="1" as="geometry">
            <mxPoint x="420" y="-760" as="sourcePoint" />
            <mxPoint x="520" y="-860" as="targetPoint" />
          </mxGeometry>
        </mxCell>
        <mxCell id="MYSW4MGK3DCAOBEJqjKi-46" value="CFDUT" style="swimlane;fontStyle=1;childLayout=stackLayout;horizontal=1;startSize=30;horizontalStack=0;resizeParent=1;resizeParentMax=0;resizeLast=0;collapsible=1;marginBottom=0;rounded=0;sketch=1;fillColor=#ffcc99;strokeColor=#36393d;" parent="1" vertex="1">
          <mxGeometry x="-300" y="-1030" width="190" height="330" as="geometry" />
        </mxCell>
        <mxCell id="MYSW4MGK3DCAOBEJqjKi-47" value="DUTID" style="text;strokeColor=none;fillColor=none;align=left;verticalAlign=middle;spacingLeft=4;spacingRight=4;overflow=hidden;points=[[0,0.5],[1,0.5]];portConstraint=eastwest;rotatable=0;rounded=0;sketch=1;fontStyle=1" parent="MYSW4MGK3DCAOBEJqjKi-46" vertex="1">
          <mxGeometry y="30" width="190" height="30" as="geometry" />
        </mxCell>
        <mxCell id="MYSW4MGK3DCAOBEJqjKi-48" value="NAME" style="text;strokeColor=none;fillColor=none;align=left;verticalAlign=middle;spacingLeft=4;spacingRight=4;overflow=hidden;points=[[0,0.5],[1,0.5]];portConstraint=eastwest;rotatable=0;rounded=0;sketch=1;fontStyle=1" parent="MYSW4MGK3DCAOBEJqjKi-46" vertex="1">
          <mxGeometry y="60" width="190" height="30" as="geometry" />
        </mxCell>
        <mxCell id="MYSW4MGK3DCAOBEJqjKi-49" value="HOLDERTYPE" style="text;strokeColor=none;fillColor=none;align=left;verticalAlign=middle;spacingLeft=4;spacingRight=4;overflow=hidden;points=[[0,0.5],[1,0.5]];portConstraint=eastwest;rotatable=0;rounded=0;sketch=1;fontStyle=1" parent="MYSW4MGK3DCAOBEJqjKi-46" vertex="1">
          <mxGeometry y="90" width="190" height="30" as="geometry" />
        </mxCell>
        <mxCell id="MYSW4MGK3DCAOBEJqjKi-50" value="X" style="text;strokeColor=none;fillColor=none;align=left;verticalAlign=middle;spacingLeft=4;spacingRight=4;overflow=hidden;points=[[0,0.5],[1,0.5]];portConstraint=eastwest;rotatable=0;rounded=0;sketch=1;fontStyle=1" parent="MYSW4MGK3DCAOBEJqjKi-46" vertex="1">
          <mxGeometry y="120" width="190" height="30" as="geometry" />
        </mxCell>
        <mxCell id="MYSW4MGK3DCAOBEJqjKi-51" value="Y" style="text;strokeColor=none;fillColor=none;align=left;verticalAlign=middle;spacingLeft=4;spacingRight=4;overflow=hidden;points=[[0,0.5],[1,0.5]];portConstraint=eastwest;rotatable=0;rounded=0;sketch=1;fontStyle=1" parent="MYSW4MGK3DCAOBEJqjKi-46" vertex="1">
          <mxGeometry y="150" width="190" height="30" as="geometry" />
        </mxCell>
        <mxCell id="MYSW4MGK3DCAOBEJqjKi-52" value="Z" style="text;strokeColor=none;fillColor=none;align=left;verticalAlign=middle;spacingLeft=4;spacingRight=4;overflow=hidden;points=[[0,0.5],[1,0.5]];portConstraint=eastwest;rotatable=0;rounded=0;sketch=1;fontStyle=1" parent="MYSW4MGK3DCAOBEJqjKi-46" vertex="1">
          <mxGeometry y="180" width="190" height="30" as="geometry" />
        </mxCell>
        <mxCell id="MYSW4MGK3DCAOBEJqjKi-53" value="SIZE_X" style="text;strokeColor=none;fillColor=none;align=left;verticalAlign=middle;spacingLeft=4;spacingRight=4;overflow=hidden;points=[[0,0.5],[1,0.5]];portConstraint=eastwest;rotatable=0;rounded=0;sketch=1;fontStyle=1" parent="MYSW4MGK3DCAOBEJqjKi-46" vertex="1">
          <mxGeometry y="210" width="190" height="30" as="geometry" />
        </mxCell>
        <mxCell id="MYSW4MGK3DCAOBEJqjKi-54" value="SIZE_Y" style="text;strokeColor=none;fillColor=none;align=left;verticalAlign=middle;spacingLeft=4;spacingRight=4;overflow=hidden;points=[[0,0.5],[1,0.5]];portConstraint=eastwest;rotatable=0;rounded=0;sketch=1;fontStyle=1" parent="MYSW4MGK3DCAOBEJqjKi-46" vertex="1">
          <mxGeometry y="240" width="190" height="30" as="geometry" />
        </mxCell>
        <mxCell id="MYSW4MGK3DCAOBEJqjKi-55" value="SIZE_Z" style="text;strokeColor=none;fillColor=none;align=left;verticalAlign=middle;spacingLeft=4;spacingRight=4;overflow=hidden;points=[[0,0.5],[1,0.5]];portConstraint=eastwest;rotatable=0;rounded=0;sketch=1;fontStyle=1" parent="MYSW4MGK3DCAOBEJqjKi-46" vertex="1">
          <mxGeometry y="270" width="190" height="30" as="geometry" />
        </mxCell>
        <mxCell id="MYSW4MGK3DCAOBEJqjKi-56" value="CREATIONDATE" style="text;strokeColor=none;fillColor=none;align=left;verticalAlign=middle;spacingLeft=4;spacingRight=4;overflow=hidden;points=[[0,0.5],[1,0.5]];portConstraint=eastwest;rotatable=0;rounded=0;sketch=1;fontStyle=1" parent="MYSW4MGK3DCAOBEJqjKi-46" vertex="1">
          <mxGeometry y="300" width="190" height="30" as="geometry" />
        </mxCell>
        <mxCell id="MYSW4MGK3DCAOBEJqjKi-57" value="" style="edgeStyle=entityRelationEdgeStyle;fontSize=12;html=1;endArrow=ERoneToMany;rounded=0;" parent="1" source="MYSW4MGK3DCAOBEJqjKi-49" target="MYSW4MGK3DCAOBEJqjKi-28" edge="1">
          <mxGeometry width="100" height="100" relative="1" as="geometry">
            <mxPoint x="440" y="-1005" as="sourcePoint" />
            <mxPoint x="320" y="-965" as="targetPoint" />
          </mxGeometry>
        </mxCell>
        <mxCell id="MYSW4MGK3DCAOBEJqjKi-58" value="CFORDER" style="swimlane;fontStyle=1;childLayout=stackLayout;horizontal=1;startSize=30;horizontalStack=0;resizeParent=1;resizeParentMax=0;resizeLast=0;collapsible=1;marginBottom=0;rounded=0;sketch=1;fillColor=#ffcc99;strokeColor=#36393d;" parent="1" vertex="1">
          <mxGeometry x="570" y="-1150" width="190" height="840" as="geometry" />
        </mxCell>
        <mxCell id="MYSW4MGK3DCAOBEJqjKi-59" value="ORDERID" style="text;strokeColor=none;fillColor=none;align=left;verticalAlign=middle;spacingLeft=4;spacingRight=4;overflow=hidden;points=[[0,0.5],[1,0.5]];portConstraint=eastwest;rotatable=0;rounded=0;sketch=1;fontStyle=1" parent="MYSW4MGK3DCAOBEJqjKi-58" vertex="1">
          <mxGeometry y="30" width="190" height="30" as="geometry" />
        </mxCell>
        <mxCell id="MYSW4MGK3DCAOBEJqjKi-60" value="ARTICLE" style="text;strokeColor=none;fillColor=none;align=left;verticalAlign=middle;spacingLeft=4;spacingRight=4;overflow=hidden;points=[[0,0.5],[1,0.5]];portConstraint=eastwest;rotatable=0;rounded=0;sketch=1;fontStyle=1" parent="MYSW4MGK3DCAOBEJqjKi-58" vertex="1">
          <mxGeometry y="60" width="190" height="30" as="geometry" />
        </mxCell>
        <mxCell id="MYSW4MGK3DCAOBEJqjKi-61" value="VERSION_ASSY(NULL)" style="text;strokeColor=none;fillColor=none;align=left;verticalAlign=middle;spacingLeft=4;spacingRight=4;overflow=hidden;points=[[0,0.5],[1,0.5]];portConstraint=eastwest;rotatable=0;rounded=0;sketch=1;fontStyle=2" parent="MYSW4MGK3DCAOBEJqjKi-58" vertex="1">
          <mxGeometry y="90" width="190" height="30" as="geometry" />
        </mxCell>
        <mxCell id="MYSW4MGK3DCAOBEJqjKi-62" value="NUMPRESERIE(NULL)" style="text;strokeColor=none;fillColor=none;align=left;verticalAlign=middle;spacingLeft=4;spacingRight=4;overflow=hidden;points=[[0,0.5],[1,0.5]];portConstraint=eastwest;rotatable=0;rounded=0;sketch=1;fontStyle=2" parent="MYSW4MGK3DCAOBEJqjKi-58" vertex="1">
          <mxGeometry y="120" width="190" height="30" as="geometry" />
        </mxCell>
        <mxCell id="MYSW4MGK3DCAOBEJqjKi-63" value="LINE" style="text;strokeColor=none;fillColor=none;align=left;verticalAlign=middle;spacingLeft=4;spacingRight=4;overflow=hidden;points=[[0,0.5],[1,0.5]];portConstraint=eastwest;rotatable=0;rounded=0;sketch=1;fontStyle=1" parent="MYSW4MGK3DCAOBEJqjKi-58" vertex="1">
          <mxGeometry y="150" width="190" height="30" as="geometry" />
        </mxCell>
        <mxCell id="MYSW4MGK3DCAOBEJqjKi-64" value="BEGIN_RANGE" style="text;strokeColor=none;fillColor=none;align=left;verticalAlign=middle;spacingLeft=4;spacingRight=4;overflow=hidden;points=[[0,0.5],[1,0.5]];portConstraint=eastwest;rotatable=0;rounded=0;sketch=1;fontStyle=1" parent="MYSW4MGK3DCAOBEJqjKi-58" vertex="1">
          <mxGeometry y="180" width="190" height="30" as="geometry" />
        </mxCell>
        <mxCell id="MYSW4MGK3DCAOBEJqjKi-65" value="END_RANGE" style="text;strokeColor=none;fillColor=none;align=left;verticalAlign=middle;spacingLeft=4;spacingRight=4;overflow=hidden;points=[[0,0.5],[1,0.5]];portConstraint=eastwest;rotatable=0;rounded=0;sketch=1;fontStyle=1" parent="MYSW4MGK3DCAOBEJqjKi-58" vertex="1">
          <mxGeometry y="210" width="190" height="30" as="geometry" />
        </mxCell>
        <mxCell id="MYSW4MGK3DCAOBEJqjKi-66" value="MASK" style="text;strokeColor=none;fillColor=none;align=left;verticalAlign=middle;spacingLeft=4;spacingRight=4;overflow=hidden;points=[[0,0.5],[1,0.5]];portConstraint=eastwest;rotatable=0;rounded=0;sketch=1;fontStyle=1" parent="MYSW4MGK3DCAOBEJqjKi-58" vertex="1">
          <mxGeometry y="240" width="190" height="30" as="geometry" />
        </mxCell>
        <mxCell id="MYSW4MGK3DCAOBEJqjKi-67" value="THOR_CYCLE_TIME" style="text;strokeColor=none;fillColor=none;align=left;verticalAlign=middle;spacingLeft=4;spacingRight=4;overflow=hidden;points=[[0,0.5],[1,0.5]];portConstraint=eastwest;rotatable=0;rounded=0;sketch=1;fontStyle=0" parent="MYSW4MGK3DCAOBEJqjKi-58" vertex="1">
          <mxGeometry y="270" width="190" height="30" as="geometry" />
        </mxCell>
        <mxCell id="MYSW4MGK3DCAOBEJqjKi-68" value="TARGET_FOR" style="text;strokeColor=none;fillColor=none;align=left;verticalAlign=middle;spacingLeft=4;spacingRight=4;overflow=hidden;points=[[0,0.5],[1,0.5]];portConstraint=eastwest;rotatable=0;rounded=0;sketch=1;fontStyle=0" parent="MYSW4MGK3DCAOBEJqjKi-58" vertex="1">
          <mxGeometry y="300" width="190" height="30" as="geometry" />
        </mxCell>
        <mxCell id="MYSW4MGK3DCAOBEJqjKi-70" value="QUANTITY" style="text;strokeColor=none;fillColor=none;align=left;verticalAlign=middle;spacingLeft=4;spacingRight=4;overflow=hidden;points=[[0,0.5],[1,0.5]];portConstraint=eastwest;rotatable=0;rounded=0;sketch=1;fontStyle=0" parent="MYSW4MGK3DCAOBEJqjKi-58" vertex="1">
          <mxGeometry y="330" width="190" height="30" as="geometry" />
        </mxCell>
        <mxCell id="MYSW4MGK3DCAOBEJqjKi-71" value="STATUS (5)" style="text;strokeColor=none;fillColor=none;align=left;verticalAlign=middle;spacingLeft=4;spacingRight=4;overflow=hidden;points=[[0,0.5],[1,0.5]];portConstraint=eastwest;rotatable=0;rounded=0;sketch=1;fontStyle=1" parent="MYSW4MGK3DCAOBEJqjKi-58" vertex="1">
          <mxGeometry y="360" width="190" height="30" as="geometry" />
        </mxCell>
        <mxCell id="MYSW4MGK3DCAOBEJqjKi-72" value="CREATIONDATE" style="text;strokeColor=none;fillColor=none;align=left;verticalAlign=middle;spacingLeft=4;spacingRight=4;overflow=hidden;points=[[0,0.5],[1,0.5]];portConstraint=eastwest;rotatable=0;rounded=0;sketch=1;fontStyle=1" parent="MYSW4MGK3DCAOBEJqjKi-58" vertex="1">
          <mxGeometry y="390" width="190" height="30" as="geometry" />
        </mxCell>
        <mxCell id="MYSW4MGK3DCAOBEJqjKi-73" value="NAME" style="text;strokeColor=none;fillColor=none;align=left;verticalAlign=middle;spacingLeft=4;spacingRight=4;overflow=hidden;points=[[0,0.5],[1,0.5]];portConstraint=eastwest;rotatable=0;rounded=0;sketch=1;fontStyle=1" parent="MYSW4MGK3DCAOBEJqjKi-58" vertex="1">
          <mxGeometry y="420" width="190" height="30" as="geometry" />
        </mxCell>
        <mxCell id="MYSW4MGK3DCAOBEJqjKi-74" value="DESCRIPTION" style="text;strokeColor=none;fillColor=none;align=left;verticalAlign=middle;spacingLeft=4;spacingRight=4;overflow=hidden;points=[[0,0.5],[1,0.5]];portConstraint=eastwest;rotatable=0;rounded=0;sketch=1;fontStyle=0" parent="MYSW4MGK3DCAOBEJqjKi-58" vertex="1">
          <mxGeometry y="450" width="190" height="30" as="geometry" />
        </mxCell>
        <mxCell id="MYSW4MGK3DCAOBEJqjKi-75" value="SEQUENCE" style="text;strokeColor=none;fillColor=none;align=left;verticalAlign=middle;spacingLeft=4;spacingRight=4;overflow=hidden;points=[[0,0.5],[1,0.5]];portConstraint=eastwest;rotatable=0;rounded=0;sketch=1;fontStyle=0" parent="MYSW4MGK3DCAOBEJqjKi-58" vertex="1">
          <mxGeometry y="480" width="190" height="30" as="geometry" />
        </mxCell>
        <mxCell id="MYSW4MGK3DCAOBEJqjKi-76" value="QUANTITY_ALARM" style="text;strokeColor=none;fillColor=none;align=left;verticalAlign=middle;spacingLeft=4;spacingRight=4;overflow=hidden;points=[[0,0.5],[1,0.5]];portConstraint=eastwest;rotatable=0;rounded=0;sketch=1;fontStyle=0" parent="MYSW4MGK3DCAOBEJqjKi-58" vertex="1">
          <mxGeometry y="510" width="190" height="30" as="geometry" />
        </mxCell>
        <mxCell id="MYSW4MGK3DCAOBEJqjKi-77" value="PREPARE_ALARM" style="text;strokeColor=none;fillColor=none;align=left;verticalAlign=middle;spacingLeft=4;spacingRight=4;overflow=hidden;points=[[0,0.5],[1,0.5]];portConstraint=eastwest;rotatable=0;rounded=0;sketch=1;fontStyle=0" parent="MYSW4MGK3DCAOBEJqjKi-58" vertex="1">
          <mxGeometry y="540" width="190" height="30" as="geometry" />
        </mxCell>
        <mxCell id="MYSW4MGK3DCAOBEJqjKi-78" value="SMEMA (2)" style="text;strokeColor=none;fillColor=none;align=left;verticalAlign=middle;spacingLeft=4;spacingRight=4;overflow=hidden;points=[[0,0.5],[1,0.5]];portConstraint=eastwest;rotatable=0;rounded=0;sketch=1;fontStyle=1" parent="MYSW4MGK3DCAOBEJqjKi-58" vertex="1">
          <mxGeometry y="570" width="190" height="30" as="geometry" />
        </mxCell>
        <mxCell id="MYSW4MGK3DCAOBEJqjKi-79" value="CUSTOMFIELD1" style="text;strokeColor=none;fillColor=none;align=left;verticalAlign=middle;spacingLeft=4;spacingRight=4;overflow=hidden;points=[[0,0.5],[1,0.5]];portConstraint=eastwest;rotatable=0;rounded=0;sketch=1;fontStyle=0" parent="MYSW4MGK3DCAOBEJqjKi-58" vertex="1">
          <mxGeometry y="600" width="190" height="30" as="geometry" />
        </mxCell>
        <mxCell id="MYSW4MGK3DCAOBEJqjKi-80" value="CUSTOMFIELD2" style="text;strokeColor=none;fillColor=none;align=left;verticalAlign=middle;spacingLeft=4;spacingRight=4;overflow=hidden;points=[[0,0.5],[1,0.5]];portConstraint=eastwest;rotatable=0;rounded=0;sketch=1;fontStyle=0" parent="MYSW4MGK3DCAOBEJqjKi-58" vertex="1">
          <mxGeometry y="630" width="190" height="30" as="geometry" />
        </mxCell>
        <mxCell id="MYSW4MGK3DCAOBEJqjKi-81" value="CUSTOMFIELD3" style="text;strokeColor=none;fillColor=none;align=left;verticalAlign=middle;spacingLeft=4;spacingRight=4;overflow=hidden;points=[[0,0.5],[1,0.5]];portConstraint=eastwest;rotatable=0;rounded=0;sketch=1;fontStyle=0" parent="MYSW4MGK3DCAOBEJqjKi-58" vertex="1">
          <mxGeometry y="660" width="190" height="30" as="geometry" />
        </mxCell>
        <mxCell id="MYSW4MGK3DCAOBEJqjKi-83" value="CUSTOMFIELD4" style="text;strokeColor=none;fillColor=none;align=left;verticalAlign=middle;spacingLeft=4;spacingRight=4;overflow=hidden;points=[[0,0.5],[1,0.5]];portConstraint=eastwest;rotatable=0;rounded=0;sketch=1;fontStyle=0" parent="MYSW4MGK3DCAOBEJqjKi-58" vertex="1">
          <mxGeometry y="690" width="190" height="30" as="geometry" />
        </mxCell>
        <mxCell id="MYSW4MGK3DCAOBEJqjKi-84" value="CUSTOMFIELD5" style="text;strokeColor=none;fillColor=none;align=left;verticalAlign=middle;spacingLeft=4;spacingRight=4;overflow=hidden;points=[[0,0.5],[1,0.5]];portConstraint=eastwest;rotatable=0;rounded=0;sketch=1;fontStyle=0" parent="MYSW4MGK3DCAOBEJqjKi-58" vertex="1">
          <mxGeometry y="720" width="190" height="30" as="geometry" />
        </mxCell>
        <mxCell id="MYSW4MGK3DCAOBEJqjKi-85" value="CUSTOMFIELD6" style="text;strokeColor=none;fillColor=none;align=left;verticalAlign=middle;spacingLeft=4;spacingRight=4;overflow=hidden;points=[[0,0.5],[1,0.5]];portConstraint=eastwest;rotatable=0;rounded=0;sketch=1;fontStyle=0" parent="MYSW4MGK3DCAOBEJqjKi-58" vertex="1">
          <mxGeometry y="750" width="190" height="30" as="geometry" />
        </mxCell>
        <mxCell id="MYSW4MGK3DCAOBEJqjKi-86" value="CUSTOMFIELD7" style="text;strokeColor=none;fillColor=none;align=left;verticalAlign=middle;spacingLeft=4;spacingRight=4;overflow=hidden;points=[[0,0.5],[1,0.5]];portConstraint=eastwest;rotatable=0;rounded=0;sketch=1;fontStyle=0" parent="MYSW4MGK3DCAOBEJqjKi-58" vertex="1">
          <mxGeometry y="780" width="190" height="30" as="geometry" />
        </mxCell>
        <mxCell id="MYSW4MGK3DCAOBEJqjKi-82" value="CUSTOMFIELD8" style="text;strokeColor=none;fillColor=none;align=left;verticalAlign=middle;spacingLeft=4;spacingRight=4;overflow=hidden;points=[[0,0.5],[1,0.5]];portConstraint=eastwest;rotatable=0;rounded=0;sketch=1;fontStyle=0" parent="MYSW4MGK3DCAOBEJqjKi-58" vertex="1">
          <mxGeometry y="810" width="190" height="30" as="geometry" />
        </mxCell>
        <mxCell id="HeIdiow19WOyddtRUGvN-1" value="CFARTICLE" style="swimlane;fontStyle=1;childLayout=stackLayout;horizontal=1;startSize=30;horizontalStack=0;resizeParent=1;resizeParentMax=0;resizeLast=0;collapsible=1;marginBottom=0;rounded=0;sketch=1;fillColor=#ffcc99;strokeColor=#36393d;" vertex="1" parent="1">
          <mxGeometry x="248.32999999999998" y="-1150" width="190" height="180" as="geometry" />
        </mxCell>
        <mxCell id="HeIdiow19WOyddtRUGvN-2" value="ARTICLE" style="text;strokeColor=none;fillColor=none;align=left;verticalAlign=middle;spacingLeft=4;spacingRight=4;overflow=hidden;points=[[0,0.5],[1,0.5]];portConstraint=eastwest;rotatable=0;rounded=0;sketch=1;fontStyle=1" vertex="1" parent="HeIdiow19WOyddtRUGvN-1">
          <mxGeometry y="30" width="190" height="30" as="geometry" />
        </mxCell>
        <mxCell id="HeIdiow19WOyddtRUGvN-3" value="DESCRIPTION" style="text;strokeColor=none;fillColor=none;align=left;verticalAlign=middle;spacingLeft=4;spacingRight=4;overflow=hidden;points=[[0,0.5],[1,0.5]];portConstraint=eastwest;rotatable=0;rounded=0;sketch=1;fontStyle=0" vertex="1" parent="HeIdiow19WOyddtRUGvN-1">
          <mxGeometry y="60" width="190" height="30" as="geometry" />
        </mxCell>
        <mxCell id="HeIdiow19WOyddtRUGvN-4" value="PRODUCTTYPE" style="text;strokeColor=none;fillColor=none;align=left;verticalAlign=middle;spacingLeft=4;spacingRight=4;overflow=hidden;points=[[0,0.5],[1,0.5]];portConstraint=eastwest;rotatable=0;rounded=0;sketch=1;fontStyle=1" vertex="1" parent="HeIdiow19WOyddtRUGvN-1">
          <mxGeometry y="90" width="190" height="30" as="geometry" />
        </mxCell>
        <mxCell id="HeIdiow19WOyddtRUGvN-5" value="BARCODE" style="text;strokeColor=none;fillColor=none;align=left;verticalAlign=middle;spacingLeft=4;spacingRight=4;overflow=hidden;points=[[0,0.5],[1,0.5]];portConstraint=eastwest;rotatable=0;rounded=0;sketch=1;fontStyle=0" vertex="1" parent="HeIdiow19WOyddtRUGvN-1">
          <mxGeometry y="120" width="190" height="30" as="geometry" />
        </mxCell>
        <mxCell id="HeIdiow19WOyddtRUGvN-6" value="CREATIONDATE" style="text;strokeColor=none;fillColor=none;align=left;verticalAlign=middle;spacingLeft=4;spacingRight=4;overflow=hidden;points=[[0,0.5],[1,0.5]];portConstraint=eastwest;rotatable=0;rounded=0;sketch=1;fontStyle=1" vertex="1" parent="HeIdiow19WOyddtRUGvN-1">
          <mxGeometry y="150" width="190" height="30" as="geometry" />
        </mxCell>
        <mxCell id="HeIdiow19WOyddtRUGvN-7" value="" style="edgeStyle=entityRelationEdgeStyle;fontSize=12;html=1;endArrow=ERoneToMany;rounded=0;" edge="1" parent="1" source="MYSW4MGK3DCAOBEJqjKi-24" target="HeIdiow19WOyddtRUGvN-4">
          <mxGeometry width="100" height="100" relative="1" as="geometry">
            <mxPoint x="180" y="-1045" as="sourcePoint" />
            <mxPoint x="220" y="-814" as="targetPoint" />
          </mxGeometry>
        </mxCell>
        <mxCell id="HeIdiow19WOyddtRUGvN-8" value="" style="edgeStyle=entityRelationEdgeStyle;fontSize=12;html=1;endArrow=ERoneToMany;rounded=0;" edge="1" parent="1" source="HeIdiow19WOyddtRUGvN-2" target="MYSW4MGK3DCAOBEJqjKi-60">
          <mxGeometry width="100" height="100" relative="1" as="geometry">
            <mxPoint x="540" y="-1070" as="sourcePoint" />
            <mxPoint x="740" y="-1050" as="targetPoint" />
          </mxGeometry>
        </mxCell>
      </root>
    </mxGraphModel>
  </diagram>
</mxfile>
